<svg width="144" height="180" viewBox="0 0 144 180" fill="none" xmlns="http://www.w3.org/2000/svg">
<path d="M5.59352 176.28C4.64685 176.28 3.81352 176.053 3.09352 175.6C2.37352 175.133 1.80685 174.38 1.39352 173.34C0.993516 172.3 0.793516 170.92 0.793516 169.2C0.793516 167.68 0.920182 166.44 1.17352 165.48C1.44018 164.507 1.80018 163.753 2.25352 163.22C2.72018 162.687 3.26685 162.32 3.89352 162.12C4.52018 161.92 5.20018 161.82 5.93352 161.82C6.25352 161.82 6.63352 161.84 7.07352 161.88C7.51352 161.907 7.94018 161.947 8.35352 162C8.76685 162.04 9.08018 162.087 9.29352 162.14L9.09352 163.58C8.97352 163.567 8.78018 163.547 8.51352 163.52C8.24685 163.493 7.95352 163.467 7.63352 163.44C7.31352 163.413 7.00685 163.393 6.71352 163.38C6.42018 163.353 6.19352 163.34 6.03352 163.34C5.38018 163.34 4.85352 163.373 4.45352 163.44C4.06685 163.507 3.78018 163.653 3.59352 163.88C3.42018 164.093 3.25352 164.407 3.09352 164.82C2.93352 165.233 2.80685 165.8 2.71352 166.52C2.62018 167.227 2.57352 168.14 2.57352 169.26C2.57352 170.673 2.70685 171.807 2.97352 172.66C3.25352 173.5 3.52685 174.053 3.79352 174.32C3.98018 174.507 4.20685 174.64 4.47352 174.72C4.74018 174.787 5.04018 174.82 5.37352 174.82C5.88018 174.82 6.36685 174.767 6.83352 174.66C7.31352 174.553 7.73352 174.427 8.09352 174.28C8.46685 174.133 8.76018 174.007 8.97352 173.9C9.18685 173.793 9.29352 173.74 9.29352 173.74L9.87352 175.06C9.87352 175.06 9.76685 175.12 9.55352 175.24C9.35352 175.36 9.06685 175.507 8.69352 175.68C8.32018 175.84 7.86685 175.98 7.33352 176.1C6.81352 176.22 6.23352 176.28 5.59352 176.28ZM16.5784 176.26C15.4717 176.26 14.5984 176.013 13.9584 175.52C13.3317 175.027 12.885 174.327 12.6184 173.42C12.3517 172.513 12.2184 171.433 12.2184 170.18C12.2184 168.927 12.3517 167.847 12.6184 166.94C12.885 166.033 13.3317 165.333 13.9584 164.84C14.5984 164.347 15.4717 164.1 16.5784 164.1C17.685 164.1 18.5517 164.347 19.1784 164.84C19.8184 165.333 20.2717 166.033 20.5384 166.94C20.805 167.847 20.9384 168.927 20.9384 170.18C20.9384 171.433 20.805 172.513 20.5384 173.42C20.2717 174.327 19.8184 175.027 19.1784 175.52C18.5517 176.013 17.685 176.26 16.5784 176.26ZM16.5784 174.82C17.085 174.82 17.505 174.76 17.8384 174.64C18.185 174.52 18.4584 174.3 18.6584 173.98C18.8717 173.66 19.0184 173.193 19.0984 172.58C19.1917 171.967 19.2384 171.167 19.2384 170.18C19.2384 169.193 19.1917 168.393 19.0984 167.78C19.0184 167.167 18.8717 166.7 18.6584 166.38C18.4584 166.047 18.185 165.827 17.8384 165.72C17.505 165.6 17.085 165.54 16.5784 165.54C16.0717 165.54 15.645 165.6 15.2984 165.72C14.965 165.827 14.6917 166.047 14.4784 166.38C14.2784 166.7 14.1317 167.167 14.0384 167.78C13.945 168.393 13.8984 169.193 13.8984 170.18C13.8984 171.167 13.945 171.967 14.0384 172.58C14.1317 173.193 14.2784 173.66 14.4784 173.98C14.6917 174.3 14.965 174.52 15.2984 174.64C15.645 174.76 16.0717 174.82 16.5784 174.82ZM24.3618 176V164.36H25.4818L25.6618 165.5H25.7418C25.8618 165.433 26.0618 165.327 26.3418 165.18C26.6218 165.02 26.9485 164.86 27.3218 164.7C27.6951 164.527 28.0885 164.387 28.5018 164.28C28.9151 164.16 29.3218 164.1 29.7218 164.1C30.2951 164.1 30.7885 164.233 31.2018 164.5C31.6285 164.767 31.9285 165.133 32.1018 165.6C32.6618 165.253 33.2818 164.92 33.9618 164.6C34.6551 164.267 35.3885 164.1 36.1618 164.1C36.8818 164.1 37.4418 164.273 37.8418 164.62C38.2418 164.967 38.5218 165.46 38.6818 166.1C38.8418 166.727 38.9218 167.473 38.9218 168.34V176H37.2618V168.9C37.2618 168.273 37.2485 167.713 37.2218 167.22C37.1951 166.727 37.1085 166.367 36.9618 166.14C36.8285 165.927 36.6418 165.8 36.4018 165.76C36.1751 165.707 35.9885 165.68 35.8418 165.68C35.4818 165.68 35.1085 165.733 34.7218 165.84C34.3485 165.933 33.9951 166.053 33.6618 166.2C33.3285 166.333 33.0485 166.46 32.8218 166.58C32.6085 166.7 32.4685 166.78 32.4018 166.82C32.4285 167.033 32.4485 167.26 32.4618 167.5C32.4751 167.74 32.4818 167.993 32.4818 168.26V176H30.8218V168.84C30.8218 168.08 30.8018 167.493 30.7618 167.08C30.7351 166.667 30.6485 166.347 30.5018 166.12C30.3685 165.933 30.2018 165.813 30.0018 165.76C29.8018 165.707 29.6085 165.68 29.4218 165.68C28.9685 165.68 28.5151 165.753 28.0618 165.9C27.6085 166.033 27.2018 166.187 26.8418 166.36C26.4818 166.52 26.2085 166.64 26.0218 166.72V176H24.3618ZM42.7016 176V164.36H43.8216L44.0016 165.5H44.0816C44.2016 165.433 44.4016 165.327 44.6816 165.18C44.9616 165.02 45.2883 164.86 45.6616 164.7C46.035 164.527 46.4283 164.387 46.8416 164.28C47.255 164.16 47.6616 164.1 48.0616 164.1C48.635 164.1 49.1283 164.233 49.5416 164.5C49.9683 164.767 50.2683 165.133 50.4416 165.6C51.0016 165.253 51.6216 164.92 52.3016 164.6C52.995 164.267 53.7283 164.1 54.5016 164.1C55.2216 164.1 55.7816 164.273 56.1816 164.62C56.5816 164.967 56.8616 165.46 57.0216 166.1C57.1816 166.727 57.2616 167.473 57.2616 168.34V176H55.6016V168.9C55.6016 168.273 55.5883 167.713 55.5616 167.22C55.535 166.727 55.4483 166.367 55.3016 166.14C55.1683 165.927 54.9816 165.8 54.7416 165.76C54.515 165.707 54.3283 165.68 54.1816 165.68C53.8216 165.68 53.4483 165.733 53.0616 165.84C52.6883 165.933 52.335 166.053 52.0016 166.2C51.6683 166.333 51.3883 166.46 51.1616 166.58C50.9483 166.7 50.8083 166.78 50.7416 166.82C50.7683 167.033 50.7883 167.26 50.8016 167.5C50.815 167.74 50.8216 167.993 50.8216 168.26V176H49.1616V168.84C49.1616 168.08 49.1416 167.493 49.1016 167.08C49.075 166.667 48.9883 166.347 48.8416 166.12C48.7083 165.933 48.5416 165.813 48.3416 165.76C48.1416 165.707 47.9483 165.68 47.7616 165.68C47.3083 165.68 46.855 165.753 46.4016 165.9C45.9483 166.033 45.5416 166.187 45.1816 166.36C44.8216 166.52 44.5483 166.64 44.3616 166.72V176H42.7016ZM63.7015 176.26C63.1682 176.26 62.6748 176.133 62.2215 175.88C61.7815 175.613 61.4282 175.18 61.1615 174.58C60.9082 173.98 60.7815 173.153 60.7815 172.1V164.36H62.4415V171.48C62.4415 172.213 62.4615 172.813 62.5015 173.28C62.5415 173.747 62.6148 174.073 62.7215 174.26C62.8148 174.407 62.9615 174.513 63.1615 174.58C63.3748 174.647 63.6148 174.68 63.8815 174.68C64.4815 174.68 65.0748 174.567 65.6615 174.34C66.2615 174.1 66.8215 173.86 67.3415 173.62V164.36H69.0015V176H67.8815L67.6815 174.88H67.5615C67.3615 174.987 67.0615 175.153 66.6615 175.38C66.2615 175.593 65.8082 175.793 65.3015 175.98C64.7948 176.167 64.2615 176.26 63.7015 176.26ZM76.0737 176.28C75.5003 176.28 75.0003 176.187 74.5737 176C74.147 175.8 73.8137 175.427 73.5737 174.88C73.347 174.32 73.2337 173.493 73.2337 172.4V166.34H71.9137V165.3L73.2937 165.02L73.7337 162.3H74.8937V165.04H77.2137V166.38H74.8937V172.52C74.8937 173.253 74.9137 173.787 74.9537 174.12C74.9937 174.453 75.0937 174.667 75.2537 174.76C75.427 174.84 75.7137 174.88 76.1137 174.88C76.327 174.88 76.5137 174.88 76.6737 174.88C76.8337 174.867 76.9603 174.86 77.0537 174.86C77.147 174.847 77.1937 174.84 77.1937 174.84V176.18C77.1937 176.18 77.0937 176.193 76.8937 176.22C76.6937 176.26 76.4203 176.28 76.0737 176.28ZM80.4188 176V164.36H82.0788V176H80.4188ZM80.2388 162.38V160.68H82.2788V162.38H80.2388ZM86.2173 176V164.36H87.3373L87.5173 165.5H87.6173C87.7373 165.433 87.9373 165.327 88.2173 165.18C88.4973 165.02 88.8306 164.86 89.2173 164.7C89.6039 164.527 90.0173 164.387 90.4573 164.28C90.8973 164.16 91.3373 164.1 91.7773 164.1C92.5106 164.1 93.0706 164.287 93.4573 164.66C93.8439 165.02 94.1039 165.513 94.2373 166.14C94.3839 166.767 94.4573 167.473 94.4573 168.26V176H92.7973V168.84C92.7973 168.053 92.7839 167.453 92.7573 167.04C92.7306 166.627 92.6439 166.313 92.4973 166.1C92.3906 165.927 92.2373 165.813 92.0373 165.76C91.8373 165.707 91.6239 165.68 91.3973 165.68C90.9173 165.68 90.4239 165.76 89.9173 165.92C89.4239 166.067 88.9906 166.227 88.6173 166.4C88.2439 166.56 87.9973 166.673 87.8773 166.74V176H86.2173ZM101.269 179.58C100.736 179.58 100.236 179.553 99.769 179.5C99.3023 179.447 98.8957 179.38 98.549 179.3C98.2023 179.233 97.929 179.173 97.729 179.12C97.529 179.067 97.429 179.04 97.429 179.04L97.629 177.54C98.3757 177.673 99.1423 177.787 99.929 177.88C100.716 177.987 101.476 178.04 102.209 178.04C102.956 178.04 103.456 177.98 103.709 177.86C103.962 177.74 104.089 177.553 104.089 177.3C104.089 177.153 104.056 177.02 103.989 176.9C103.922 176.78 103.802 176.653 103.629 176.52C103.456 176.4 103.202 176.26 102.869 176.1C102.536 175.94 102.096 175.747 101.549 175.52C100.789 175.2 100.236 174.973 99.889 174.84C99.5557 174.693 99.3423 174.6 99.249 174.56C99.169 174.507 99.129 174.46 99.129 174.42C99.129 174.407 99.1623 174.32 99.229 174.16C99.2957 173.987 99.3823 173.78 99.489 173.54C99.5957 173.3 99.7023 173.053 99.809 172.8C99.9157 172.533 100.009 172.307 100.089 172.12C99.209 171.947 98.4957 171.52 97.949 170.84C97.4157 170.16 97.149 169.333 97.149 168.36C97.149 167.267 97.3623 166.413 97.789 165.8C98.2157 165.187 98.7757 164.753 99.469 164.5C100.176 164.233 100.936 164.1 101.749 164.1C102.016 164.1 102.329 164.107 102.689 164.12C103.062 164.133 103.436 164.153 103.809 164.18C104.196 164.207 104.549 164.233 104.869 164.26C105.202 164.287 105.469 164.307 105.669 164.32C105.869 164.333 105.969 164.34 105.969 164.34V165.4L104.649 165.6C104.649 165.587 104.702 165.727 104.809 166.02C104.929 166.3 105.042 166.653 105.149 167.08C105.269 167.493 105.329 167.9 105.329 168.3C105.329 169.06 105.162 169.74 104.829 170.34C104.496 170.927 104.016 171.393 103.389 171.74C102.762 172.073 102.009 172.24 101.129 172.24C101.089 172.453 101.042 172.707 100.989 173C100.936 173.28 100.909 173.447 100.909 173.5C100.909 173.527 100.949 173.567 101.029 173.62C101.122 173.66 101.296 173.733 101.549 173.84C101.816 173.933 102.202 174.093 102.709 174.32C103.482 174.64 104.076 174.953 104.489 175.26C104.902 175.567 105.189 175.867 105.349 176.16C105.509 176.453 105.589 176.747 105.589 177.04C105.589 177.573 105.402 178.027 105.029 178.4C104.669 178.787 104.162 179.08 103.509 179.28C102.869 179.48 102.122 179.58 101.269 179.58ZM101.229 170.8C101.829 170.8 102.309 170.727 102.669 170.58C103.042 170.433 103.309 170.18 103.469 169.82C103.642 169.447 103.729 168.927 103.729 168.26C103.729 167.5 103.682 166.893 103.589 166.44C103.496 165.973 103.409 165.72 103.329 165.68C103.302 165.653 103.189 165.633 102.989 165.62C102.789 165.593 102.569 165.58 102.329 165.58C102.089 165.567 101.876 165.56 101.689 165.56C101.516 165.547 101.429 165.54 101.429 165.54C100.802 165.54 100.289 165.613 99.889 165.76C99.5023 165.907 99.2157 166.173 99.029 166.56C98.8557 166.947 98.769 167.513 98.769 168.26C98.769 169.247 98.9557 169.92 99.329 170.28C99.7157 170.627 100.349 170.8 101.229 170.8ZM111.543 176L115.323 162.1H117.683L121.463 176H119.743L118.683 171.84L119.523 172.32H113.523L114.323 171.84L113.263 176H111.543ZM114.363 171.62L113.803 170.84H119.203L118.643 171.62L116.383 162.84L117.323 163.58H115.683L116.623 162.84L114.363 171.62ZM123.261 179.32V164.36H124.381L124.601 165.54H124.721C124.974 165.353 125.267 165.153 125.601 164.94C125.934 164.713 126.314 164.52 126.741 164.36C127.181 164.187 127.661 164.1 128.181 164.1C128.901 164.1 129.521 164.307 130.041 164.72C130.574 165.12 130.981 165.753 131.261 166.62C131.554 167.473 131.701 168.587 131.701 169.96C131.701 171.253 131.581 172.313 131.341 173.14C131.101 173.953 130.781 174.593 130.381 175.06C129.981 175.513 129.527 175.827 129.021 176C128.514 176.187 128.001 176.28 127.481 176.28C127.161 176.28 126.834 176.267 126.501 176.24C126.167 176.213 125.861 176.173 125.581 176.12C125.314 176.08 125.094 176.047 124.921 176.02V179.32H123.261ZM127.861 174.8C128.007 174.8 128.187 174.787 128.401 174.76C128.627 174.72 128.827 174.627 129.001 174.48C129.187 174.32 129.347 174.073 129.481 173.74C129.627 173.393 129.741 172.893 129.821 172.24C129.901 171.587 129.941 170.72 129.941 169.64C129.941 168.76 129.914 168.073 129.861 167.58C129.821 167.073 129.754 166.7 129.661 166.46C129.581 166.207 129.481 166.027 129.361 165.92C129.294 165.853 129.174 165.78 129.001 165.7C128.841 165.62 128.587 165.58 128.241 165.58C127.814 165.58 127.374 165.653 126.921 165.8C126.481 165.933 126.081 166.087 125.721 166.26C125.361 166.42 125.094 166.553 124.921 166.66V174.38C125.201 174.46 125.621 174.553 126.181 174.66C126.741 174.753 127.301 174.8 127.861 174.8ZM134.804 179.32V164.36H135.924L136.144 165.54H136.264C136.517 165.353 136.81 165.153 137.144 164.94C137.477 164.713 137.857 164.52 138.284 164.36C138.724 164.187 139.204 164.1 139.724 164.1C140.444 164.1 141.064 164.307 141.584 164.72C142.117 165.12 142.524 165.753 142.804 166.62C143.097 167.473 143.244 168.587 143.244 169.96C143.244 171.253 143.124 172.313 142.884 173.14C142.644 173.953 142.324 174.593 141.924 175.06C141.524 175.513 141.07 175.827 140.564 176C140.057 176.187 139.544 176.28 139.024 176.28C138.704 176.28 138.377 176.267 138.044 176.24C137.71 176.213 137.404 176.173 137.124 176.12C136.857 176.08 136.637 176.047 136.464 176.02V179.32H134.804ZM139.404 174.8C139.55 174.8 139.73 174.787 139.944 174.76C140.17 174.72 140.37 174.627 140.544 174.48C140.73 174.32 140.89 174.073 141.024 173.74C141.17 173.393 141.284 172.893 141.364 172.24C141.444 171.587 141.484 170.72 141.484 169.64C141.484 168.76 141.457 168.073 141.404 167.58C141.364 167.073 141.297 166.7 141.204 166.46C141.124 166.207 141.024 166.027 140.904 165.92C140.837 165.853 140.717 165.78 140.544 165.7C140.384 165.62 140.13 165.58 139.784 165.58C139.357 165.58 138.917 165.653 138.464 165.8C138.024 165.933 137.624 166.087 137.264 166.26C136.904 166.42 136.637 166.553 136.464 166.66V174.38C136.744 174.46 137.164 174.553 137.724 174.66C138.284 174.753 138.844 174.8 139.404 174.8Z" fill="black"/>
<g filter="url(#filter0_dd_0_1)">
<path d="M34.0368 36.0882C34.0368 35.8882 34.0488 35.6772 34.0488 35.4882C34.0608 35.3552 34.0608 35.2352 34.0728 35.1022C34.0968 34.5582 34.1448 34.0142 34.1938 33.4712V33.3502C34.2298 33.1082 34.2538 32.8552 34.2778 32.6132C34.2898 32.5282 34.2898 32.4562 34.3018 32.3712C34.3508 32.0092 34.4018 31.6472 34.4588 31.2842C34.458 31.2777 34.4586 31.2711 34.4607 31.2648C34.4628 31.2586 34.4662 31.2529 34.4708 31.2482C34.5558 30.6482 34.6648 30.0482 34.7858 29.4602C34.7903 29.4555 34.7938 29.4498 34.7958 29.4436C34.7979 29.4373 34.7986 29.4307 34.7978 29.4242C34.8458 29.1582 34.9058 28.9042 34.9668 28.6392C35.1358 27.9262 35.3168 27.2132 35.5218 26.5132C35.6668 26.0292 35.8118 25.5462 35.9808 25.0632C36.0898 25.3892 36.1988 25.7152 36.3198 26.0292C36.4038 26.2592 36.4888 26.4882 36.5728 26.7062V26.7182C36.5857 26.7656 36.6063 26.8105 36.6338 26.8512C36.6578 26.8992 36.6698 26.9512 36.6938 26.9962C36.8148 27.3222 36.9478 27.6362 37.0938 27.9502C37.1428 28.0823 37.1992 28.2115 37.2628 28.3372V28.3492C37.2781 28.3876 37.2983 28.4239 37.3228 28.4572L37.3348 28.4692C37.3381 28.5173 37.3551 28.5634 37.3838 28.6022C37.5171 28.9042 37.6621 29.2062 37.8188 29.5082C37.8499 29.5832 37.886 29.656 37.9268 29.7262C37.9557 29.7888 37.9892 29.8493 38.0268 29.9072C38.0998 30.0762 38.1838 30.2332 38.2688 30.3902C38.3768 30.5842 38.4854 30.7776 38.5948 30.9702C38.642 31.0695 38.6944 31.1663 38.7518 31.2602C38.7398 31.2722 38.7518 31.2722 38.7518 31.2722C38.7998 31.3722 38.8608 31.4652 38.9208 31.5622C39.1208 31.9492 39.3558 32.3232 39.5968 32.6982C39.8748 33.1569 40.1648 33.6039 40.4668 34.0392C40.5236 34.1082 40.576 34.1807 40.6238 34.2562C40.9018 34.6562 41.1918 35.0562 41.4818 35.4402C41.7358 35.7782 42.0008 36.1042 42.2668 36.4302C42.3998 36.6002 42.5328 36.7692 42.6778 36.9302C42.7618 37.0382 42.8588 37.1472 42.9558 37.2562C43.1728 37.5222 43.4148 37.7872 43.6558 38.0562C43.6971 38.1072 43.7415 38.1557 43.7888 38.2012C44.1278 38.5762 44.4778 38.9382 44.8398 39.3012L70.9698 65.4432L97.1108 39.3012C97.6308 38.7822 98.1258 38.2502 98.6108 37.7192C98.8888 37.4052 99.1668 37.0792 99.4328 36.7532C99.5328 36.6442 99.6138 36.5352 99.7108 36.4262C100.037 36.0262 100.351 35.6172 100.653 35.2062C100.738 35.0852 100.822 34.9772 100.907 34.8562C101.064 34.6512 101.207 34.4332 101.366 34.2162C101.487 34.0472 101.595 33.8772 101.704 33.7082C101.764 33.6307 101.821 33.5503 101.873 33.4672C102.187 32.9842 102.501 32.4882 102.791 31.9932C102.936 31.7512 103.069 31.5222 103.202 31.2802C103.223 31.2317 103.251 31.1868 103.286 31.1472C103.419 30.9062 103.54 30.6522 103.673 30.4102C103.842 30.0962 103.999 29.7822 104.156 29.4682C104.187 29.4152 104.212 29.3584 104.229 29.2992C104.273 29.2167 104.314 29.1319 104.35 29.0452C104.379 28.9995 104.403 28.9509 104.422 28.9002C104.47 28.8002 104.522 28.7192 104.555 28.6352C104.664 28.4052 104.755 28.1882 104.845 27.9582C104.941 27.7662 105.026 27.5685 105.099 27.3662C105.135 27.2942 105.159 27.2332 105.199 27.1612C105.199 27.1492 105.211 27.1372 105.211 27.1252C105.489 26.4362 105.743 25.7592 105.96 25.0712C106.129 25.5542 106.274 26.0372 106.419 26.5212C106.519 26.8472 106.613 27.1732 106.697 27.4992C106.781 27.8252 106.878 28.1752 106.951 28.5262C107.047 28.9122 107.131 29.2985 107.204 29.6852C107.289 30.0722 107.362 30.4592 107.422 30.8572C107.482 31.2552 107.555 31.6432 107.603 32.0412C107.651 32.3672 107.688 32.7062 107.724 33.0322C107.736 33.1532 107.748 33.2612 107.76 33.3822C107.796 33.7202 107.821 34.0712 107.845 34.4092V34.4212C107.881 34.7832 107.893 35.1342 107.905 35.4962C107.929 35.9962 107.941 36.4752 107.941 36.9702C107.941 37.6702 107.917 38.3832 107.869 39.0842C107.378 48.1473 103.548 56.7073 97.1168 63.1122L71.0118 89.2052L70.9758 89.2412L44.8458 63.1122C42.9279 61.2021 41.2302 59.0828 39.7848 56.7942C39.7848 56.7812 39.7728 56.7702 39.7728 56.7572C36.3917 51.457 34.4359 45.3737 34.0948 39.0962C34.0238 38.0812 33.9998 37.0912 34.0368 36.0882Z" fill="url(#paint0_linear_0_1)"/>
<path d="M45.3564 10.3332C51.4028 4.50895 59.2538 0.919666 67.6144 0.157577C75.9751 -0.604512 84.3457 1.50614 91.3454 6.14128C91.3934 6.16528 91.4304 6.18929 91.4544 6.20229C93.2863 7.42241 95.0046 8.80498 96.5884 10.3332L95.5884 11.3332L70.9695 35.9403L46.2174 11.1912V11.1792L46.1334 11.0943L45.3564 10.3332Z" fill="url(#paint1_linear_0_1)"/>
<path d="M35.9814 25.0593C37.2035 21.4246 38.9892 18.0045 41.2734 14.9243C41.4904 14.6343 41.7084 14.3443 41.9494 14.0543C42.1674 13.7763 42.3964 13.4983 42.6264 13.2203C43.0974 12.6773 43.5684 12.1333 44.0754 11.6013C44.3174 11.3363 44.5754 11.0823 44.8364 10.8163C44.9939 10.6433 45.1637 10.4818 45.3445 10.3333H45.3564L46.1294 11.0943L46.2134 11.1793V11.1913L70.9664 35.9433L95.5854 11.3363L96.5854 10.3363C96.7669 10.488 96.9401 10.6493 97.1044 10.8193C101.118 14.8163 104.145 19.6927 105.947 25.0623C105.73 25.7503 105.476 26.4273 105.198 27.1163C105.198 27.1283 105.186 27.1403 105.186 27.1523C105.15 27.2243 105.126 27.2853 105.086 27.3573C105.014 27.5597 104.929 27.7573 104.832 27.9493C104.639 28.396 104.434 28.843 104.216 29.2903C104.047 29.6643 103.853 30.0393 103.66 30.4013C103.382 30.9333 103.092 31.4643 102.778 31.9843C102.488 32.4793 102.178 32.9753 101.86 33.4583C101.836 33.4823 101.824 33.5183 101.8 33.5423C101.51 33.9893 101.2 34.4363 100.87 34.8833C100.797 34.9923 100.725 35.0893 100.64 35.1973C100.314 35.6323 99.9764 36.0673 99.6404 36.4903L99.6164 36.5143C99.2904 36.9143 98.9521 37.3143 98.6014 37.7143C98.1184 38.2453 97.6234 38.7773 97.1014 39.2963L70.9604 65.4382L44.8304 39.2963C41.7388 36.209 39.2195 32.5977 37.3894 28.6303C37.3531 28.5796 37.3282 28.5216 37.3164 28.4603C37.2919 28.427 37.2718 28.3907 37.2564 28.3523V28.3403C37.1929 28.2146 37.1365 28.0854 37.0874 27.9534C36.9424 27.6394 36.8094 27.3253 36.6874 26.9993C36.6403 26.9098 36.5999 26.8168 36.5664 26.7213V26.7093C36.4824 26.4913 36.3974 26.2623 36.3134 26.0323C36.1994 25.7113 36.0904 25.3853 35.9814 25.0593Z" fill="url(#paint2_linear_0_1)"/>
<g style="mix-blend-mode:multiply" opacity="0.06">
<path d="M70.9658 35.9422L96.5918 10.3262C96.7688 10.4782 96.9458 10.6553 97.1098 10.8193C98.3952 12.097 99.5822 13.4699 100.661 14.9263L70.9658 35.9422Z" fill="#010101"/>
</g>
<g style="mix-blend-mode:multiply" opacity="0.06">
<path d="M70.9658 65.4312L97.1068 39.2892C97.6268 38.7702 98.1218 38.2382 98.6068 37.7072C98.8848 37.3812 99.1628 37.0672 99.4288 36.7412C99.5288 36.6322 99.6098 36.5232 99.7068 36.4142C100.033 36.0142 100.347 35.6052 100.649 35.1942C100.734 35.0732 100.818 34.9652 100.903 34.8442C101.06 34.6392 101.217 34.4212 101.362 34.2042C101.483 34.0352 101.591 33.8652 101.7 33.6962C101.76 33.6187 101.817 33.5383 101.869 33.4552C102.183 32.9722 102.497 32.4762 102.787 31.9812C102.932 31.7512 103.065 31.5102 103.198 31.2682C103.219 31.2197 103.247 31.1748 103.282 31.1352C103.415 30.8942 103.548 30.6402 103.669 30.3982C103.838 30.0842 103.995 29.7702 104.152 29.4562C104.183 29.4032 104.208 29.3464 104.225 29.2872C104.27 29.2047 104.31 29.1199 104.346 29.0332C104.375 28.9875 104.399 28.9389 104.418 28.8882C104.563 28.5742 104.708 28.2602 104.841 27.9462C104.938 27.7542 105.022 27.5565 105.095 27.3542C105.409 26.5932 105.695 25.8322 105.952 25.0542C106.121 25.5372 106.266 26.0202 106.411 26.5042C106.511 26.8302 106.605 27.1562 106.689 27.4822C106.773 27.8082 106.87 28.1582 106.943 28.5092C107.039 28.8952 107.123 29.2815 107.196 29.6682C107.281 30.0552 107.354 30.4422 107.414 30.8402C107.474 31.2382 107.547 31.6262 107.595 32.0242C107.643 32.3502 107.68 32.6892 107.716 33.0152C107.728 33.1362 107.74 33.2442 107.752 33.3652C107.788 33.7032 107.813 34.0542 107.837 34.3922V34.4042C107.873 34.7662 107.885 35.1172 107.897 35.4792C107.921 35.9792 107.933 36.4582 107.933 36.9532C107.933 37.6532 107.909 38.3662 107.861 39.0672L107.461 39.3572L76.2088 61.6862L70.9658 65.4312Z" fill="#010101"/>
</g>
<g style="mix-blend-mode:multiply" opacity="0.06">
<path d="M41.2734 14.9262C41.4904 14.6362 41.7084 14.3462 41.9494 14.0562C42.1674 13.7782 42.3964 13.5002 42.6264 13.2222C43.0974 12.6792 43.5684 12.1352 44.0754 11.6032C44.3174 11.3382 44.5754 11.0722 44.8244 10.8182H44.8364C44.9939 10.6451 45.1637 10.4837 45.3445 10.3352H45.3564L46.2014 11.1932C46.2014 11.1812 46.2134 11.1932 46.2134 11.1932C46.2305 11.2198 46.251 11.244 46.2744 11.2652L70.9664 35.9452L65.9774 32.4182L42.2514 15.6182L41.2734 14.9262Z" fill="#010101"/>
</g>
<g style="mix-blend-mode:multiply" opacity="0.06">
<path d="M34.973 28.6262C35.137 27.9152 35.315 27.2062 35.522 26.5042C35.667 26.0202 35.812 25.5372 35.981 25.0542C36.09 25.3802 36.199 25.7062 36.32 26.0202C36.404 26.2502 36.489 26.4792 36.585 26.6972C36.61 26.7972 36.658 26.8902 36.694 26.9872C36.815 27.3132 36.948 27.6272 37.094 27.9412C37.143 28.0732 37.1994 28.2025 37.263 28.3282C37.2756 28.3715 37.2959 28.4121 37.323 28.4482C37.3347 28.5095 37.3596 28.5675 37.396 28.6182C39.2288 32.581 41.7433 36.1912 44.825 39.2842H44.837L70.967 65.4262L65.784 61.7172L34.895 39.6592L34.086 39.0792L34.074 39.0672C34.025 38.3672 34.001 37.6542 34.001 36.9532C34.001 36.6632 34.026 36.3732 34.033 36.0832C34.033 35.8832 34.047 35.6832 34.055 35.4762C34.083 34.7762 34.129 34.0862 34.197 33.3912C34.23 33.0472 34.265 32.7042 34.308 32.3612C34.354 31.9992 34.399 31.6372 34.456 31.2762C34.556 30.6552 34.666 30.0372 34.794 29.4202C34.849 29.1592 34.911 28.8952 34.973 28.6262Z" fill="#010101"/>
</g>
<g style="mix-blend-mode:multiply" opacity="0.14">
<path d="M46.123 11.0991L70.966 35.9421L95.5811 11.3421C93.6981 13.5661 91.727 15.6891 89.794 17.8621C87.835 19.9981 85.864 22.1341 83.868 24.2311C81.884 26.3541 79.849 28.4261 77.84 30.5111L71.724 36.7031L70.966 37.4741L70.208 36.7031L64.041 30.4481C62.007 28.3381 59.96 26.2531 57.951 24.1181C55.942 21.9831 53.945 19.8461 51.961 17.6861C50.028 15.4971 48.031 13.3481 46.123 11.0991Z" fill="#010101"/>
</g>
<g style="mix-blend-mode:multiply" opacity="0.14">
<path d="M37.2646 28.3482C39.1058 32.4232 41.6703 36.1307 44.8336 39.2912L70.9656 65.4352L97.1096 39.2912C100.586 35.8234 103.331 31.6941 105.185 27.1472C103.743 31.245 101.558 35.0419 98.7397 38.3472C98.0327 39.1812 97.2617 39.9642 96.5287 40.7472L94.3177 43.0972L89.8316 47.7602C83.8676 53.9602 77.8016 60.0932 71.7236 66.1962L70.9656 66.9542L70.2076 66.1962L61.3496 57.2502C58.4306 54.2422 55.4737 51.2602 52.5797 48.2152L48.2166 43.6752L46.0556 41.3882C45.3476 40.6172 44.6027 39.8592 43.8946 39.0882C41.0602 35.9334 38.8146 32.2958 37.2646 28.3482Z" fill="#010101"/>
</g>
<g style="mix-blend-mode:screen" opacity="0.3">
<path d="M46.123 11.0991C48.372 13.0071 50.5231 14.9991 52.7061 16.9371C54.8667 18.9211 57.0107 20.9178 59.138 22.9271C61.274 24.9361 63.3591 26.9831 65.4691 29.0171L70.9691 34.4381L76.402 29.0681C78.502 27.0591 80.56 25.0241 82.683 23.0531C84.793 21.0441 86.916 19.0851 89.064 17.1141C91.237 15.1931 93.364 13.2221 95.584 11.3391L70.9691 35.9391L46.123 11.0991Z" fill="white"/>
</g>
<g style="mix-blend-mode:screen" opacity="0.3">
<path d="M37.2646 28.3482C39.1632 32.0638 41.6561 35.4443 44.6447 38.3562C47.6767 41.2372 50.7446 44.1182 53.7546 47.0372C56.7876 49.9432 59.7696 52.8872 62.7776 55.8192L70.9656 63.9312C76.8156 58.0932 82.7083 52.3059 88.6436 46.5692L93.3066 42.0832C94.8606 40.6052 96.4776 39.1392 97.9566 37.6352C100.938 34.57 103.382 31.0244 105.185 27.1472C103.331 31.6941 100.586 35.8234 97.1096 39.2912L70.9656 65.4352L44.8336 39.2912C41.6703 36.1307 39.1058 32.4232 37.2646 28.3482Z" fill="white"/>
</g>
<g style="mix-blend-mode:screen" opacity="0.5">
<path d="M71.002 89.1932C71.316 88.8062 73.9739 85.6172 78.0569 81.1722C80.2189 78.7802 82.7799 76.0502 85.5569 73.1382C86.9569 71.7012 88.371 70.1912 89.857 68.6932C91.343 67.1952 92.857 65.6612 94.351 64.1392C95.1 63.3902 95.909 62.6282 96.61 61.9042C97.383 61.1312 98.036 60.3822 98.688 59.6042C99.9789 58.071 101.142 56.4349 102.167 54.7122C104.001 51.6443 105.408 48.3401 106.347 44.8912C106.782 43.3692 107.035 41.9312 107.277 40.6632C107.35 40.2032 107.41 39.7692 107.458 39.3632C107.555 38.6139 107.627 37.9372 107.676 37.3332C107.748 36.4272 107.76 35.6662 107.796 35.1712C107.821 34.7362 107.833 34.4712 107.833 34.4102C107.869 34.7722 107.881 35.1232 107.893 35.4852C107.917 35.9852 107.929 36.4642 107.929 36.9592C107.929 37.6592 107.905 38.3722 107.857 39.0732C107.366 48.1363 103.536 56.6963 97.1049 63.1012L71.002 89.1932Z" fill="white"/>
</g>
<g style="mix-blend-mode:multiply" opacity="0.2">
<path d="M34.973 28.6261C35.137 27.9151 35.315 27.2061 35.522 26.5041C35.667 26.0201 35.812 25.5371 35.981 25.0541C37.203 21.4193 38.9888 17.9992 41.273 14.9191C41.49 14.6291 41.708 14.3391 41.949 14.0491C42.167 13.7711 42.396 13.4931 42.626 13.2151C43.097 12.6721 43.568 12.1281 44.075 11.5961C44.317 11.3311 44.575 11.0651 44.824 10.8111H44.836C44.9934 10.638 45.1632 10.4766 45.344 10.3281H45.356C51.4023 4.50382 59.2534 0.91454 67.614 0.152451C75.9746 -0.609637 84.3453 1.50098 91.345 6.13613C91.188 6.05213 90.934 5.90712 90.62 5.72612C89.968 5.36312 89.002 4.88014 87.757 4.28814C84.3234 2.72098 80.6753 1.67447 76.933 1.18312C71.7002 0.481577 66.3782 0.89047 61.314 2.38314C58.485 3.22648 55.7645 4.39812 53.208 5.87413C50.6767 7.35464 48.3326 9.13406 46.226 11.1741C46.226 11.1741 46.213 11.1621 46.213 11.1741V11.1861C46.213 11.1861 46.201 11.1741 46.201 11.1861C46.117 11.2581 46.044 11.3431 45.96 11.4151C44.6143 12.7117 43.374 14.1135 42.251 15.6071C41.5546 16.532 40.9054 17.4916 40.306 18.4821C38.7621 21.002 37.5292 23.6997 36.634 26.5161C36.6125 26.5749 36.5961 26.6355 36.585 26.6971H36.573V26.7091C35.7769 29.2893 35.2508 31.9452 35.003 34.6341C34.8537 36.3048 34.8172 37.9836 34.894 39.6591C34.931 40.4921 35.003 41.3141 35.088 42.0991C35.4802 45.8545 36.437 49.5293 37.926 52.9991C38.506 54.2441 38.941 55.2341 39.304 55.8741C39.521 56.2851 39.678 56.5871 39.763 56.7441C36.3819 51.4439 34.4262 45.3606 34.085 39.0831L34.073 39.0711C34.024 38.3711 34 37.6581 34 36.9571C34 36.6671 34.025 36.3771 34.032 36.0871C34.032 35.8871 34.046 35.6871 34.054 35.4801C34.082 34.7801 34.128 34.0901 34.196 33.3951C34.229 33.0511 34.264 32.7081 34.307 32.3651C34.353 32.0031 34.398 31.6411 34.455 31.2801C34.555 30.6591 34.665 30.0411 34.793 29.4241C34.849 29.1591 34.911 28.8951 34.973 28.6261Z" fill="#010101"/>
</g>
</g>
<g filter="url(#filter1_dd_0_1)">
<circle cx="72.5" cy="113.5" r="13.5" fill="black"/>
</g>
<defs>
<filter id="filter0_dd_0_1" x="30" y="0" width="81.9408" height="97.2412" filterUnits="userSpaceOnUse" color-interpolation-filters="sRGB">
<feFlood flood-opacity="0" result="BackgroundImageFix"/>
<feColorMatrix in="SourceAlpha" type="matrix" values="0 0 0 0 0 0 0 0 0 0 0 0 0 0 0 0 0 0 127 0" result="hardAlpha"/>
<feOffset dy="4"/>
<feGaussianBlur stdDeviation="2"/>
<feComposite in2="hardAlpha" operator="out"/>
<feColorMatrix type="matrix" values="0 0 0 0 0 0 0 0 0 0 0 0 0 0 0 0 0 0 0.25 0"/>
<feBlend mode="normal" in2="BackgroundImageFix" result="effect1_dropShadow_0_1"/>
<feColorMatrix in="SourceAlpha" type="matrix" values="0 0 0 0 0 0 0 0 0 0 0 0 0 0 0 0 0 0 127 0" result="hardAlpha"/>
<feOffset dy="4"/>
<feGaussianBlur stdDeviation="2"/>
<feComposite in2="hardAlpha" operator="out"/>
<feColorMatrix type="matrix" values="0 0 0 0 0 0 0 0 0 0 0 0 0 0 0 0 0 0 0.25 0"/>
<feBlend mode="normal" in2="effect1_dropShadow_0_1" result="effect2_dropShadow_0_1"/>
<feBlend mode="normal" in="SourceGraphic" in2="effect2_dropShadow_0_1" result="shape"/>
</filter>
<filter id="filter1_dd_0_1" x="55" y="100" width="35" height="35" filterUnits="userSpaceOnUse" color-interpolation-filters="sRGB">
<feFlood flood-opacity="0" result="BackgroundImageFix"/>
<feColorMatrix in="SourceAlpha" type="matrix" values="0 0 0 0 0 0 0 0 0 0 0 0 0 0 0 0 0 0 127 0" result="hardAlpha"/>
<feOffset dy="4"/>
<feGaussianBlur stdDeviation="2"/>
<feComposite in2="hardAlpha" operator="out"/>
<feColorMatrix type="matrix" values="0 0 0 0 0 0 0 0 0 0 0 0 0 0 0 0 0 0 0.25 0"/>
<feBlend mode="normal" in2="BackgroundImageFix" result="effect1_dropShadow_0_1"/>
<feColorMatrix in="SourceAlpha" type="matrix" values="0 0 0 0 0 0 0 0 0 0 0 0 0 0 0 0 0 0 127 0" result="hardAlpha"/>
<feOffset dy="4"/>
<feGaussianBlur stdDeviation="2"/>
<feComposite in2="hardAlpha" operator="out"/>
<feColorMatrix type="matrix" values="0 0 0 0 0 0 0 0 0 0 0 0 0 0 0 0 0 0 0.25 0"/>
<feBlend mode="normal" in2="effect1_dropShadow_0_1" result="effect2_dropShadow_0_1"/>
<feBlend mode="normal" in="SourceGraphic" in2="effect2_dropShadow_0_1" result="shape"/>
</filter>
<linearGradient id="paint0_linear_0_1" x1="-1063.86" y1="878.31" x2="-1063.86" y2="925.93" gradientUnits="userSpaceOnUse">
<stop stop-color="#41668F"/>
<stop offset="0.247" stop-color="#355881"/>
<stop offset="0.75" stop-color="#1F324E"/>
<stop offset="1" stop-color="#131D32"/>
</linearGradient>
<linearGradient id="paint1_linear_0_1" x1="-1063.71" y1="931.624" x2="-1063.71" y2="964.864" gradientUnits="userSpaceOnUse">
<stop/>
<stop offset="0.1899" stop-color="#EEA518"/>
<stop offset="0.19" stop-color="#F77F28"/>
<stop offset="0.371" stop-color="#F77F28"/>
<stop offset="0.619" stop-color="#F77F28"/>
<stop offset="0.949" stop-color="#F77F28"/>
<stop offset="1" stop-color="#F26022"/>
</linearGradient>
<linearGradient id="paint2_linear_0_1" x1="-1063.67" y1="902.759" x2="-1063.67" y2="943.041" gradientUnits="userSpaceOnUse">
<stop stop-color="#F77F28"/>
<stop offset="0.04" stop-color="#5D3283"/>
<stop offset="0.35" stop-color="#54618E"/>
<stop offset="0.625" stop-color="#4E8396"/>
<stop offset="0.851" stop-color="#4A989B"/>
<stop offset="1" stop-color="#49A09D"/>
</linearGradient>
</defs>
</svg>
