<svg width="206" height="164" viewBox="0 0 206 164" fill="none" xmlns="http://www.w3.org/2000/svg">
<g filter="url(#filter0_dd_0_1)">
<path d="M66.0663 36.088C66.0663 35.888 66.0783 35.677 66.0783 35.488C66.0903 35.355 66.0903 35.235 66.1023 35.102C66.1263 34.558 66.1743 34.014 66.2233 33.471V33.35C66.2593 33.108 66.2833 32.855 66.3073 32.613C66.3193 32.528 66.3193 32.456 66.3313 32.371C66.3803 32.009 66.4313 31.647 66.4883 31.284C66.4875 31.2775 66.4882 31.2709 66.4902 31.2646C66.4923 31.2584 66.4958 31.2527 66.5003 31.248C66.5853 30.648 66.6943 30.048 66.8153 29.46C66.8199 29.4553 66.8233 29.4496 66.8254 29.4434C66.8275 29.4371 66.8281 29.4305 66.8273 29.424C66.8753 29.158 66.9353 28.904 66.9963 28.639C67.1653 27.926 67.3463 27.213 67.5513 26.513C67.6963 26.029 67.8413 25.546 68.0103 25.063C68.1193 25.389 68.2283 25.715 68.3493 26.029C68.4333 26.259 68.5183 26.488 68.6023 26.706V26.718C68.6153 26.7654 68.6359 26.8103 68.6633 26.851C68.6873 26.899 68.6993 26.951 68.7233 26.996C68.8443 27.322 68.9773 27.636 69.1233 27.95C69.1724 28.0821 69.2288 28.2113 69.2923 28.337V28.349C69.3076 28.3874 69.3278 28.4237 69.3523 28.457L69.3643 28.469C69.3677 28.5171 69.3846 28.5632 69.4133 28.602C69.5466 28.904 69.6916 29.206 69.8483 29.508C69.8795 29.583 69.9155 29.6558 69.9563 29.726C69.9853 29.7886 70.0187 29.8491 70.0563 29.907C70.1293 30.076 70.2133 30.233 70.2983 30.39C70.4063 30.584 70.515 30.7774 70.6243 30.97C70.6716 31.0693 70.724 31.1661 70.7813 31.26C70.7693 31.272 70.7813 31.272 70.7813 31.272C70.8293 31.372 70.8903 31.465 70.9503 31.562C71.1503 31.949 71.3853 32.323 71.6263 32.698C71.9043 33.1567 72.1943 33.6037 72.4963 34.039C72.5531 34.108 72.6056 34.1805 72.6533 34.256C72.9313 34.656 73.2213 35.056 73.5113 35.44C73.7653 35.778 74.0303 36.104 74.2963 36.43C74.4293 36.6 74.5623 36.769 74.7073 36.93C74.7913 37.038 74.8883 37.147 74.9853 37.256C75.2023 37.522 75.4443 37.787 75.6853 38.056C75.7266 38.107 75.771 38.1555 75.8183 38.201C76.1573 38.576 76.5073 38.938 76.8693 39.301L102.999 65.443L129.14 39.301C129.66 38.782 130.155 38.25 130.64 37.719C130.918 37.405 131.196 37.079 131.462 36.753C131.562 36.644 131.643 36.535 131.74 36.426C132.066 36.026 132.38 35.617 132.682 35.206C132.767 35.085 132.851 34.977 132.936 34.856C133.093 34.651 133.236 34.433 133.395 34.216C133.516 34.047 133.624 33.877 133.733 33.708C133.794 33.6305 133.85 33.5501 133.902 33.467C134.216 32.984 134.53 32.488 134.82 31.993C134.965 31.751 135.098 31.522 135.231 31.28C135.252 31.2315 135.28 31.1866 135.315 31.147C135.448 30.906 135.569 30.652 135.702 30.41C135.871 30.096 136.028 29.782 136.185 29.468C136.217 29.415 136.241 29.3582 136.258 29.299C136.303 29.2165 136.343 29.1317 136.379 29.045C136.408 28.9993 136.432 28.9507 136.451 28.9C136.499 28.8 136.551 28.719 136.584 28.635C136.693 28.405 136.784 28.188 136.874 27.958C136.971 27.766 137.056 27.5683 137.128 27.366C137.164 27.294 137.188 27.233 137.228 27.161C137.228 27.149 137.24 27.137 137.24 27.125C137.518 26.436 137.772 25.759 137.989 25.071C138.158 25.554 138.303 26.037 138.448 26.521C138.548 26.847 138.642 27.173 138.726 27.499C138.81 27.825 138.907 28.175 138.98 28.526C139.076 28.912 139.161 29.2983 139.233 29.685C139.318 30.072 139.391 30.459 139.451 30.857C139.511 31.255 139.584 31.643 139.632 32.041C139.68 32.367 139.717 32.706 139.753 33.032C139.765 33.153 139.777 33.261 139.789 33.382C139.825 33.72 139.85 34.071 139.874 34.409V34.421C139.91 34.783 139.922 35.134 139.934 35.496C139.958 35.996 139.97 36.475 139.97 36.97C139.97 37.67 139.946 38.383 139.898 39.084C139.408 48.1471 135.577 56.7071 129.146 63.112L103.041 89.205L103.005 89.241L76.8753 63.112C74.9574 61.2019 73.2598 59.0826 71.8143 56.794C71.8143 56.781 71.8023 56.77 71.8023 56.757C68.4213 51.4568 66.4655 45.3735 66.1243 39.096C66.0533 38.081 66.0293 37.091 66.0663 36.088Z" fill="url(#paint0_linear_0_1)"/>
<path d="M77.386 10.3335C83.4324 4.50919 91.2834 0.91991 99.644 0.157821C108.005 -0.604268 116.375 1.50638 123.375 6.14152C123.423 6.16552 123.46 6.18953 123.484 6.20253C125.316 7.42265 127.034 8.80522 128.618 10.3335L127.618 11.3335L102.999 35.9406L78.247 11.1915V11.1795L78.163 11.0946L77.386 10.3335Z" fill="url(#paint1_linear_0_1)"/>
<path d="M68.011 25.059C69.233 21.4243 71.0188 18.0042 73.303 14.924C73.52 14.634 73.738 14.344 73.979 14.054C74.197 13.776 74.426 13.498 74.656 13.22C75.127 12.677 75.598 12.133 76.1049 11.601C76.3469 11.336 76.6049 11.082 76.8659 10.816C77.0234 10.643 77.1932 10.4815 77.374 10.333H77.3859L78.1589 11.094L78.2429 11.179V11.191L102.996 35.943L127.615 11.336L128.615 10.336C128.796 10.4877 128.97 10.649 129.134 10.819C133.147 14.816 136.175 19.6924 137.977 25.062C137.76 25.75 137.506 26.427 137.228 27.116C137.228 27.128 137.216 27.14 137.216 27.152C137.18 27.224 137.156 27.285 137.116 27.357C137.043 27.5594 136.959 27.757 136.862 27.949C136.669 28.3957 136.463 28.8427 136.246 29.29C136.077 29.664 135.883 30.039 135.69 30.401C135.412 30.933 135.122 31.464 134.808 31.984C134.518 32.479 134.208 32.975 133.89 33.458C133.866 33.482 133.854 33.518 133.83 33.542C133.54 33.989 133.23 34.436 132.9 34.883C132.827 34.992 132.755 35.089 132.67 35.197C132.344 35.632 132.006 36.067 131.67 36.49L131.646 36.514C131.32 36.914 130.982 37.314 130.631 37.714C130.148 38.245 129.653 38.777 129.131 39.296L102.99 65.438L76.8599 39.296C73.7684 36.2087 71.249 32.5974 69.419 28.63C69.3826 28.5793 69.3577 28.5213 69.346 28.46C69.3215 28.4267 69.3013 28.3904 69.286 28.352V28.34C69.2224 28.2143 69.166 28.0851 69.117 27.9531C68.972 27.6391 68.839 27.325 68.717 26.999C68.6699 26.9095 68.6294 26.8165 68.596 26.721V26.709C68.512 26.491 68.427 26.262 68.343 26.032C68.229 25.711 68.12 25.385 68.011 25.059Z" fill="url(#paint2_linear_0_1)"/>
<g style="mix-blend-mode:multiply" opacity="0.06">
<path d="M102.995 35.9422L128.621 10.3262C128.798 10.4782 128.975 10.6553 129.139 10.8193C130.425 12.097 131.612 13.4699 132.69 14.9263L102.995 35.9422Z" fill="#010101"/>
</g>
<g style="mix-blend-mode:multiply" opacity="0.06">
<path d="M102.995 65.4312L129.136 39.2892C129.656 38.7702 130.151 38.2382 130.636 37.7072C130.914 37.3812 131.192 37.0672 131.458 36.7412C131.558 36.6322 131.639 36.5232 131.736 36.4142C132.062 36.0142 132.376 35.6052 132.678 35.1942C132.763 35.0732 132.847 34.9652 132.932 34.8442C133.089 34.6392 133.246 34.4212 133.391 34.2042C133.512 34.0352 133.62 33.8652 133.729 33.6962C133.79 33.6187 133.846 33.5383 133.898 33.4552C134.212 32.9722 134.526 32.4762 134.816 31.9812C134.961 31.7512 135.094 31.5102 135.227 31.2682C135.248 31.2197 135.277 31.1748 135.311 31.1352C135.444 30.8942 135.577 30.6402 135.698 30.3982C135.867 30.0842 136.024 29.7702 136.181 29.4562C136.213 29.4032 136.237 29.3464 136.254 29.2872C136.299 29.2047 136.34 29.1199 136.375 29.0332C136.404 28.9875 136.428 28.9389 136.447 28.8882C136.592 28.5742 136.737 28.2602 136.87 27.9462C136.967 27.7542 137.052 27.5565 137.124 27.3542C137.438 26.5932 137.724 25.8322 137.981 25.0542C138.15 25.5372 138.295 26.0202 138.44 26.5042C138.54 26.8302 138.634 27.1562 138.718 27.4822C138.802 27.8082 138.899 28.1582 138.972 28.5092C139.068 28.8952 139.153 29.2815 139.225 29.6682C139.31 30.0552 139.383 30.4422 139.443 30.8402C139.503 31.2382 139.576 31.6262 139.624 32.0242C139.672 32.3502 139.709 32.6892 139.745 33.0152C139.757 33.1362 139.769 33.2442 139.781 33.3652C139.817 33.7032 139.842 34.0542 139.866 34.3922V34.4042C139.902 34.7662 139.914 35.1172 139.926 35.4792C139.95 35.9792 139.962 36.4582 139.962 36.9532C139.962 37.6532 139.938 38.3662 139.89 39.0672L139.49 39.3572L108.238 61.6862L102.995 65.4312Z" fill="#010101"/>
</g>
<g style="mix-blend-mode:multiply" opacity="0.06">
<path d="M73.303 14.9264C73.52 14.6364 73.738 14.3464 73.979 14.0564C74.197 13.7784 74.426 13.5004 74.656 13.2224C75.127 12.6794 75.598 12.1354 76.1049 11.6034C76.3469 11.3384 76.6049 11.0724 76.8539 10.8184H76.8659C77.0234 10.6453 77.1932 10.4839 77.374 10.3354H77.3859L78.2309 11.1934C78.2309 11.1814 78.2429 11.1934 78.2429 11.1934C78.26 11.22 78.2805 11.2442 78.3039 11.2654L102.996 35.9454L98.0069 32.4184L74.281 15.6184L73.303 14.9264Z" fill="#010101"/>
</g>
<g style="mix-blend-mode:multiply" opacity="0.06">
<path d="M67.0025 28.6262C67.1665 27.9152 67.3445 27.2062 67.5515 26.5042C67.6965 26.0202 67.8415 25.5372 68.0105 25.0542C68.1195 25.3802 68.2285 25.7062 68.3495 26.0202C68.4335 26.2502 68.5185 26.4792 68.6145 26.6972C68.6395 26.7972 68.6875 26.8902 68.7235 26.9872C68.8445 27.3132 68.9775 27.6272 69.1235 27.9412C69.1726 28.0732 69.229 28.2025 69.2925 28.3282C69.3051 28.3715 69.3255 28.4121 69.3525 28.4482C69.3643 28.5095 69.3892 28.5675 69.4255 28.6182C71.2583 32.581 73.7729 36.1912 76.8545 39.2842H76.8665L102.997 65.4262L97.8135 61.7172L66.9245 39.6592L66.1155 39.0792L66.1035 39.0672C66.0545 38.3672 66.0305 37.6542 66.0305 36.9532C66.0305 36.6632 66.0555 36.3732 66.0625 36.0832C66.0625 35.8832 66.0765 35.6832 66.0845 35.4762C66.1125 34.7762 66.1585 34.0862 66.2265 33.3912C66.2595 33.0472 66.2945 32.7042 66.3375 32.3612C66.3835 31.9992 66.4285 31.6372 66.4855 31.2762C66.5855 30.6552 66.6955 30.0372 66.8235 29.4202C66.8785 29.1592 66.9405 28.8952 67.0025 28.6262Z" fill="#010101"/>
</g>
<g style="mix-blend-mode:multiply" opacity="0.14">
<path d="M78.1526 11.0991L102.996 35.9421L127.611 11.3421C125.728 13.5661 123.757 15.6891 121.824 17.8621C119.865 19.9981 117.894 22.1341 115.898 24.2311C113.914 26.3541 111.879 28.4261 109.87 30.5111L103.754 36.7031L102.996 37.4741L102.238 36.7031L96.0706 30.4481C94.0366 28.3381 91.9896 26.2531 89.9806 24.1181C87.9716 21.9831 85.9746 19.8461 83.9906 17.6861C82.0576 15.4971 80.0606 13.3481 78.1526 11.0991Z" fill="#010101"/>
</g>
<g style="mix-blend-mode:multiply" opacity="0.14">
<path d="M69.2942 28.3485C71.1354 32.4235 73.6998 36.131 76.8631 39.2915L102.995 65.4355L129.139 39.2915C132.615 35.8237 135.361 31.6944 137.214 27.1475C135.773 31.2453 133.588 35.0422 130.769 38.3475C130.062 39.1815 129.291 39.9645 128.558 40.7475L126.347 43.0975L121.861 47.7605C115.897 53.9605 109.831 60.0935 103.753 66.1965L102.995 66.9545L102.237 66.1965L93.3791 57.2505C90.4601 54.2425 87.5032 51.2605 84.6092 48.2155L80.2461 43.6755L78.0851 41.3885C77.3771 40.6175 76.6322 39.8595 75.9242 39.0885C73.0897 35.9337 70.8442 32.2961 69.2942 28.3485Z" fill="#010101"/>
</g>
<g style="mix-blend-mode:screen" opacity="0.3">
<path d="M78.1526 11.0991C80.4016 13.0071 82.5527 14.9991 84.7357 16.9371C86.8963 18.9211 89.0403 20.9178 91.1676 22.9271C93.3036 24.9361 95.3887 26.9831 97.4987 29.0171L102.999 34.4381L108.432 29.0681C110.532 27.0591 112.59 25.0241 114.713 23.0531C116.823 21.0441 118.946 19.0851 121.094 17.1141C123.267 15.1931 125.394 13.2221 127.614 11.3391L102.999 35.9391L78.1526 11.0991Z" fill="white"/>
</g>
<g style="mix-blend-mode:screen" opacity="0.3">
<path d="M69.2942 28.3485C71.1928 32.0641 73.6856 35.4446 76.6742 38.3565C79.7062 41.2375 82.7741 44.1185 85.7841 47.0375C88.8171 49.9435 91.7991 52.8875 94.8071 55.8195L102.995 63.9315C108.845 58.0935 114.738 52.3062 120.673 46.5695L125.336 42.0835C126.89 40.6055 128.507 39.1395 129.986 37.6355C132.968 34.5703 135.411 31.0247 137.214 27.1475C135.361 31.6944 132.615 35.8237 129.139 39.2915L102.995 65.4355L76.8631 39.2915C73.6998 36.131 71.1354 32.4235 69.2942 28.3485Z" fill="white"/>
</g>
<g style="mix-blend-mode:screen" opacity="0.5">
<path d="M103.031 89.1932C103.345 88.8062 106.003 85.6172 110.086 81.1722C112.248 78.7802 114.809 76.0502 117.586 73.1382C118.986 71.7012 120.4 70.1912 121.886 68.6932C123.372 67.1952 124.886 65.6612 126.38 64.1392C127.129 63.3902 127.938 62.6282 128.639 61.9042C129.412 61.1312 130.065 60.3822 130.717 59.6042C132.008 58.071 133.172 56.4349 134.196 54.7122C136.031 51.6443 137.437 48.3401 138.376 44.8912C138.811 43.3692 139.064 41.9312 139.306 40.6632C139.379 40.2032 139.439 39.7692 139.487 39.3632C139.584 38.6139 139.657 37.9372 139.705 37.3332C139.777 36.4272 139.789 35.6662 139.825 35.1712C139.85 34.7362 139.862 34.4712 139.862 34.4102C139.898 34.7722 139.91 35.1232 139.922 35.4852C139.946 35.9852 139.958 36.4642 139.958 36.9592C139.958 37.6592 139.934 38.3722 139.886 39.0732C139.396 48.1363 135.565 56.6963 129.134 63.1012L103.031 89.1932Z" fill="white"/>
</g>
<g style="mix-blend-mode:multiply" opacity="0.2">
<path d="M67.0026 28.6261C67.1666 27.9151 67.3445 27.2061 67.5515 26.5041C67.6965 26.0201 67.8416 25.5371 68.0106 25.0541C69.2326 21.4193 71.0184 17.9992 73.3026 14.9191C73.5196 14.6291 73.7375 14.3391 73.9786 14.0491C74.1966 13.7711 74.4256 13.4931 74.6556 13.2151C75.1266 12.6721 75.5976 12.1281 76.1045 11.5961C76.3465 11.3311 76.6045 11.0651 76.8535 10.8111H76.8655C77.0229 10.638 77.1927 10.4766 77.3735 10.3281H77.3855C83.4318 4.50382 91.2829 0.91454 99.6435 0.152451C108.004 -0.609637 116.375 1.50098 123.375 6.13613C123.218 6.05213 122.964 5.90712 122.65 5.72612C121.998 5.36312 121.032 4.88014 119.787 4.28814C116.353 2.72098 112.705 1.67447 108.963 1.18312C103.73 0.481577 98.4077 0.89047 93.3435 2.38314C90.5145 3.22648 87.794 4.39812 85.2375 5.87413C82.7062 7.35464 80.3621 9.13406 78.2555 11.1741C78.2555 11.1741 78.2425 11.1621 78.2425 11.1741V11.1861C78.2425 11.1861 78.2305 11.1741 78.2305 11.1861C78.1465 11.2581 78.0735 11.3431 77.9895 11.4151C76.6438 12.7117 75.4036 14.1135 74.2806 15.6071C73.5841 16.532 72.9349 17.4916 72.3355 18.4821C70.7917 21.002 69.5587 23.6997 68.6635 26.5161C68.642 26.5749 68.6256 26.6355 68.6146 26.6971H68.6025V26.7091C67.8065 29.2893 67.2803 31.9452 67.0326 34.6341C66.8832 36.3048 66.8468 37.9836 66.9236 39.6591C66.9606 40.4921 67.0326 41.3141 67.1176 42.0991C67.5098 45.8545 68.4666 49.5293 69.9556 52.9991C70.5356 54.2441 70.9706 55.2341 71.3336 55.8741C71.5506 56.2851 71.7075 56.5871 71.7925 56.7441C68.4115 51.4439 66.4558 45.3606 66.1146 39.0831L66.1025 39.0711C66.0535 38.3711 66.0295 37.6581 66.0295 36.9571C66.0295 36.6671 66.0546 36.3771 66.0616 36.0871C66.0616 35.8871 66.0756 35.6871 66.0836 35.4801C66.1116 34.7801 66.1576 34.0901 66.2256 33.3951C66.2586 33.0511 66.2935 32.7081 66.3365 32.3651C66.3825 32.0031 66.4276 31.6411 66.4846 31.2801C66.5846 30.6591 66.6945 30.0411 66.8225 29.4241C66.8785 29.1591 66.9406 28.8951 67.0026 28.6261Z" fill="#010101"/>
</g>
</g>
<g filter="url(#filter1_dd_0_1)">
<circle cx="104.53" cy="113.5" r="13.5" fill="black"/>
</g>
<path d="M41.3611 159.28C40.4144 159.28 39.5811 159.053 38.8611 158.6C38.1411 158.133 37.5744 157.38 37.1611 156.34C36.7611 155.3 36.5611 153.92 36.5611 152.2C36.5611 150.68 36.6878 149.44 36.9411 148.48C37.2078 147.507 37.5678 146.753 38.0211 146.22C38.4878 145.687 39.0344 145.32 39.6611 145.12C40.2878 144.92 40.9678 144.82 41.7011 144.82C42.0211 144.82 42.4011 144.84 42.8411 144.88C43.2811 144.907 43.7078 144.947 44.1211 145C44.5344 145.04 44.8478 145.087 45.0611 145.14L44.8611 146.58C44.7411 146.567 44.5478 146.547 44.2811 146.52C44.0144 146.493 43.7211 146.467 43.4011 146.44C43.0811 146.413 42.7744 146.393 42.4811 146.38C42.1878 146.353 41.9611 146.34 41.8011 146.34C41.1478 146.34 40.6211 146.373 40.2211 146.44C39.8344 146.507 39.5478 146.653 39.3611 146.88C39.1878 147.093 39.0211 147.407 38.8611 147.82C38.7011 148.233 38.5744 148.8 38.4811 149.52C38.3878 150.227 38.3411 151.14 38.3411 152.26C38.3411 153.673 38.4744 154.807 38.7411 155.66C39.0211 156.5 39.2944 157.053 39.5611 157.32C39.7478 157.507 39.9744 157.64 40.2411 157.72C40.5078 157.787 40.8078 157.82 41.1411 157.82C41.6478 157.82 42.1344 157.767 42.6011 157.66C43.0811 157.553 43.5011 157.427 43.8611 157.28C44.2344 157.133 44.5278 157.007 44.7411 156.9C44.9544 156.793 45.0611 156.74 45.0611 156.74L45.6411 158.06C45.6411 158.06 45.5344 158.12 45.3211 158.24C45.1211 158.36 44.8344 158.507 44.4611 158.68C44.0878 158.84 43.6344 158.98 43.1011 159.1C42.5811 159.22 42.0011 159.28 41.3611 159.28ZM52.3459 159.26C51.2393 159.26 50.3659 159.013 49.7259 158.52C49.0993 158.027 48.6526 157.327 48.3859 156.42C48.1193 155.513 47.9859 154.433 47.9859 153.18C47.9859 151.927 48.1193 150.847 48.3859 149.94C48.6526 149.033 49.0993 148.333 49.7259 147.84C50.3659 147.347 51.2393 147.1 52.3459 147.1C53.4526 147.1 54.3193 147.347 54.9459 147.84C55.5859 148.333 56.0393 149.033 56.3059 149.94C56.5726 150.847 56.7059 151.927 56.7059 153.18C56.7059 154.433 56.5726 155.513 56.3059 156.42C56.0393 157.327 55.5859 158.027 54.9459 158.52C54.3193 159.013 53.4526 159.26 52.3459 159.26ZM52.3459 157.82C52.8526 157.82 53.2726 157.76 53.6059 157.64C53.9526 157.52 54.2259 157.3 54.4259 156.98C54.6393 156.66 54.7859 156.193 54.8659 155.58C54.9593 154.967 55.0059 154.167 55.0059 153.18C55.0059 152.193 54.9593 151.393 54.8659 150.78C54.7859 150.167 54.6393 149.7 54.4259 149.38C54.2259 149.047 53.9526 148.827 53.6059 148.72C53.2726 148.6 52.8526 148.54 52.3459 148.54C51.8393 148.54 51.4126 148.6 51.0659 148.72C50.7326 148.827 50.4593 149.047 50.2459 149.38C50.0459 149.7 49.8993 150.167 49.8059 150.78C49.7126 151.393 49.6659 152.193 49.6659 153.18C49.6659 154.167 49.7126 154.967 49.8059 155.58C49.8993 156.193 50.0459 156.66 50.2459 156.98C50.4593 157.3 50.7326 157.52 51.0659 157.64C51.4126 157.76 51.8393 157.82 52.3459 157.82ZM60.1294 159V147.36H61.2494L61.4294 148.5H61.5094C61.6294 148.433 61.8294 148.327 62.1094 148.18C62.3894 148.02 62.716 147.86 63.0894 147.7C63.4627 147.527 63.856 147.387 64.2694 147.28C64.6827 147.16 65.0894 147.1 65.4894 147.1C66.0627 147.1 66.556 147.233 66.9694 147.5C67.396 147.767 67.696 148.133 67.8694 148.6C68.4294 148.253 69.0494 147.92 69.7294 147.6C70.4227 147.267 71.156 147.1 71.9294 147.1C72.6494 147.1 73.2094 147.273 73.6094 147.62C74.0094 147.967 74.2894 148.46 74.4494 149.1C74.6094 149.727 74.6894 150.473 74.6894 151.34V159H73.0294V151.9C73.0294 151.273 73.016 150.713 72.9894 150.22C72.9627 149.727 72.876 149.367 72.7294 149.14C72.596 148.927 72.4094 148.8 72.1694 148.76C71.9427 148.707 71.756 148.68 71.6094 148.68C71.2494 148.68 70.876 148.733 70.4894 148.84C70.116 148.933 69.7627 149.053 69.4294 149.2C69.096 149.333 68.816 149.46 68.5894 149.58C68.376 149.7 68.236 149.78 68.1694 149.82C68.196 150.033 68.216 150.26 68.2294 150.5C68.2427 150.74 68.2494 150.993 68.2494 151.26V159H66.5894V151.84C66.5894 151.08 66.5694 150.493 66.5294 150.08C66.5027 149.667 66.416 149.347 66.2694 149.12C66.136 148.933 65.9694 148.813 65.7694 148.76C65.5694 148.707 65.376 148.68 65.1894 148.68C64.736 148.68 64.2827 148.753 63.8294 148.9C63.376 149.033 62.9694 149.187 62.6094 149.36C62.2494 149.52 61.976 149.64 61.7894 149.72V159H60.1294ZM78.4692 159V147.36H79.5892L79.7692 148.5H79.8492C79.9692 148.433 80.1692 148.327 80.4492 148.18C80.7292 148.02 81.0559 147.86 81.4292 147.7C81.8026 147.527 82.1959 147.387 82.6092 147.28C83.0226 147.16 83.4292 147.1 83.8292 147.1C84.4026 147.1 84.8959 147.233 85.3092 147.5C85.7359 147.767 86.0359 148.133 86.2092 148.6C86.7692 148.253 87.3892 147.92 88.0692 147.6C88.7626 147.267 89.4959 147.1 90.2692 147.1C90.9892 147.1 91.5492 147.273 91.9492 147.62C92.3492 147.967 92.6292 148.46 92.7892 149.1C92.9492 149.727 93.0292 150.473 93.0292 151.34V159H91.3692V151.9C91.3692 151.273 91.3559 150.713 91.3292 150.22C91.3026 149.727 91.2159 149.367 91.0692 149.14C90.9359 148.927 90.7492 148.8 90.5092 148.76C90.2826 148.707 90.0959 148.68 89.9492 148.68C89.5892 148.68 89.2159 148.733 88.8292 148.84C88.4559 148.933 88.1026 149.053 87.7692 149.2C87.4359 149.333 87.1559 149.46 86.9292 149.58C86.7159 149.7 86.5759 149.78 86.5092 149.82C86.5359 150.033 86.5559 150.26 86.5692 150.5C86.5826 150.74 86.5892 150.993 86.5892 151.26V159H84.9292V151.84C84.9292 151.08 84.9092 150.493 84.8692 150.08C84.8426 149.667 84.7559 149.347 84.6092 149.12C84.4759 148.933 84.3092 148.813 84.1092 148.76C83.9092 148.707 83.7159 148.68 83.5292 148.68C83.0759 148.68 82.6226 148.753 82.1692 148.9C81.7159 149.033 81.3092 149.187 80.9492 149.36C80.5892 149.52 80.3159 149.64 80.1292 149.72V159H78.4692ZM99.4691 159.26C98.9357 159.26 98.4424 159.133 97.9891 158.88C97.5491 158.613 97.1957 158.18 96.9291 157.58C96.6757 156.98 96.5491 156.153 96.5491 155.1V147.36H98.2091V154.48C98.2091 155.213 98.2291 155.813 98.2691 156.28C98.3091 156.747 98.3824 157.073 98.4891 157.26C98.5824 157.407 98.7291 157.513 98.9291 157.58C99.1424 157.647 99.3824 157.68 99.6491 157.68C100.249 157.68 100.842 157.567 101.429 157.34C102.029 157.1 102.589 156.86 103.109 156.62V147.36H104.769V159H103.649L103.449 157.88H103.329C103.129 157.987 102.829 158.153 102.429 158.38C102.029 158.593 101.576 158.793 101.069 158.98C100.562 159.167 100.029 159.26 99.4691 159.26ZM111.841 159.28C111.268 159.28 110.768 159.187 110.341 159C109.915 158.8 109.581 158.427 109.341 157.88C109.115 157.32 109.001 156.493 109.001 155.4V149.34H107.681V148.3L109.061 148.02L109.501 145.3H110.661V148.04H112.981V149.38H110.661V155.52C110.661 156.253 110.681 156.787 110.721 157.12C110.761 157.453 110.861 157.667 111.021 157.76C111.195 157.84 111.481 157.88 111.881 157.88C112.095 157.88 112.281 157.88 112.441 157.88C112.601 157.867 112.728 157.86 112.821 157.86C112.915 157.847 112.961 157.84 112.961 157.84V159.18C112.961 159.18 112.861 159.193 112.661 159.22C112.461 159.26 112.188 159.28 111.841 159.28ZM120.146 159.28C119.226 159.28 118.413 159.087 117.706 158.7C117.013 158.3 116.473 157.653 116.086 156.76C115.7 155.853 115.506 154.653 115.506 153.16C115.506 151.6 115.706 150.38 116.106 149.5C116.52 148.62 117.073 148 117.766 147.64C118.46 147.267 119.24 147.08 120.106 147.08C120.973 147.08 121.706 147.253 122.306 147.6C122.92 147.947 123.386 148.527 123.706 149.34C124.026 150.14 124.186 151.22 124.186 152.58V153.84H116.506L117.286 153.54C117.233 154.42 117.253 155.127 117.346 155.66C117.453 156.18 117.58 156.567 117.726 156.82C117.886 157.073 118.02 157.253 118.126 157.36C118.313 157.52 118.54 157.64 118.806 157.72C119.073 157.8 119.4 157.84 119.786 157.84C120.173 157.84 120.553 157.813 120.926 157.76C121.3 157.693 121.646 157.62 121.966 157.54C122.286 157.447 122.573 157.36 122.826 157.28C123.08 157.187 123.286 157.12 123.446 157.08L123.866 158.42C123.746 158.473 123.513 158.573 123.166 158.72C122.82 158.853 122.386 158.98 121.866 159.1C121.36 159.22 120.786 159.28 120.146 159.28ZM117.286 153.24L116.506 152.52L123.246 152.38L122.486 153.12C122.5 152.173 122.48 151.36 122.426 150.68C122.386 150 122.253 149.48 122.026 149.12C121.933 148.973 121.773 148.84 121.546 148.72C121.32 148.587 120.88 148.52 120.226 148.52C119.546 148.52 119.033 148.593 118.686 148.74C118.353 148.887 118.093 149.08 117.906 149.32C117.413 149.973 117.206 151.28 117.286 153.24ZM127.492 159L127.972 145.1H130.412L133.552 154.16H133.692L136.852 145.1H139.292L139.772 159H138.092L137.932 146.78H137.792L134.652 155.74H132.592L129.472 146.78H129.332L129.172 159H127.492ZM146.001 159.26C145.388 159.26 144.841 159.12 144.361 158.84C143.895 158.547 143.528 158.127 143.261 157.58C142.995 157.02 142.861 156.347 142.861 155.56C142.861 154.613 143.048 153.873 143.421 153.34C143.808 152.793 144.348 152.407 145.041 152.18C145.735 151.953 146.541 151.84 147.461 151.84H149.581C149.581 151.173 149.561 150.593 149.521 150.1C149.495 149.593 149.388 149.22 149.201 148.98C149.068 148.793 148.881 148.673 148.641 148.62C148.415 148.567 148.175 148.54 147.921 148.54C147.401 148.54 146.888 148.593 146.381 148.7C145.888 148.793 145.435 148.907 145.021 149.04C144.621 149.173 144.301 149.293 144.061 149.4C143.821 149.493 143.701 149.54 143.701 149.54L143.121 148.24C143.121 148.24 143.248 148.187 143.501 148.08C143.755 147.96 144.095 147.827 144.521 147.68C144.948 147.52 145.421 147.387 145.941 147.28C146.475 147.16 147.021 147.1 147.581 147.1C148.488 147.1 149.208 147.28 149.741 147.64C150.275 147.987 150.655 148.48 150.881 149.12C151.121 149.747 151.241 150.487 151.241 151.34V159H150.161L149.921 157.78H149.801C149.668 157.873 149.475 158.007 149.221 158.18C148.981 158.34 148.695 158.507 148.361 158.68C148.041 158.84 147.681 158.973 147.281 159.08C146.881 159.2 146.455 159.26 146.001 159.26ZM146.281 157.8C146.761 157.8 147.215 157.733 147.641 157.6C148.081 157.453 148.468 157.293 148.801 157.12C149.148 156.947 149.408 156.807 149.581 156.7V153.38C149.408 153.353 149.148 153.327 148.801 153.3C148.455 153.26 148.001 153.24 147.441 153.24C146.201 153.24 145.435 153.367 145.141 153.62C144.968 153.753 144.835 153.993 144.741 154.34C144.648 154.673 144.601 155.08 144.601 155.56C144.601 156.347 144.728 156.92 144.981 157.28C145.248 157.627 145.681 157.8 146.281 157.8ZM158.228 159.28C157.655 159.28 157.155 159.187 156.728 159C156.301 158.8 155.968 158.427 155.728 157.88C155.501 157.32 155.388 156.493 155.388 155.4V149.34H154.068V148.3L155.448 148.02L155.888 145.3H157.048V148.04H159.368V149.38H157.048V155.52C157.048 156.253 157.068 156.787 157.108 157.12C157.148 157.453 157.248 157.667 157.408 157.76C157.581 157.84 157.868 157.88 158.268 157.88C158.481 157.88 158.668 157.88 158.828 157.88C158.988 157.867 159.115 157.86 159.208 157.86C159.301 157.847 159.348 157.84 159.348 157.84V159.18C159.348 159.18 159.248 159.193 159.048 159.22C158.848 159.26 158.575 159.28 158.228 159.28ZM166.533 159.28C165.613 159.28 164.8 159.087 164.093 158.7C163.4 158.3 162.86 157.653 162.473 156.76C162.086 155.853 161.893 154.653 161.893 153.16C161.893 151.6 162.093 150.38 162.493 149.5C162.906 148.62 163.46 148 164.153 147.64C164.846 147.267 165.626 147.08 166.493 147.08C167.36 147.08 168.093 147.253 168.693 147.6C169.306 147.947 169.773 148.527 170.093 149.34C170.413 150.14 170.573 151.22 170.573 152.58V153.84H162.893L163.673 153.54C163.62 154.42 163.64 155.127 163.733 155.66C163.84 156.18 163.966 156.567 164.113 156.82C164.273 157.073 164.406 157.253 164.513 157.36C164.7 157.52 164.926 157.64 165.193 157.72C165.46 157.8 165.786 157.84 166.173 157.84C166.56 157.84 166.94 157.813 167.313 157.76C167.686 157.693 168.033 157.62 168.353 157.54C168.673 157.447 168.96 157.36 169.213 157.28C169.466 157.187 169.673 157.12 169.833 157.08L170.253 158.42C170.133 158.473 169.9 158.573 169.553 158.72C169.206 158.853 168.773 158.98 168.253 159.1C167.746 159.22 167.173 159.28 166.533 159.28ZM163.673 153.24L162.893 152.52L169.633 152.38L168.873 153.12C168.886 152.173 168.866 151.36 168.813 150.68C168.773 150 168.64 149.48 168.413 149.12C168.32 148.973 168.16 148.84 167.933 148.72C167.706 148.587 167.266 148.52 166.613 148.52C165.933 148.52 165.42 148.593 165.073 148.74C164.74 148.887 164.48 149.08 164.293 149.32C163.8 149.973 163.593 151.28 163.673 153.24Z" fill="black"/>
<defs>
<filter id="filter0_dd_0_1" x="62.0295" y="0" width="81.9409" height="97.2412" filterUnits="userSpaceOnUse" color-interpolation-filters="sRGB">
<feFlood flood-opacity="0" result="BackgroundImageFix"/>
<feColorMatrix in="SourceAlpha" type="matrix" values="0 0 0 0 0 0 0 0 0 0 0 0 0 0 0 0 0 0 127 0" result="hardAlpha"/>
<feOffset dy="4"/>
<feGaussianBlur stdDeviation="2"/>
<feComposite in2="hardAlpha" operator="out"/>
<feColorMatrix type="matrix" values="0 0 0 0 0 0 0 0 0 0 0 0 0 0 0 0 0 0 0.25 0"/>
<feBlend mode="normal" in2="BackgroundImageFix" result="effect1_dropShadow_0_1"/>
<feColorMatrix in="SourceAlpha" type="matrix" values="0 0 0 0 0 0 0 0 0 0 0 0 0 0 0 0 0 0 127 0" result="hardAlpha"/>
<feOffset dy="4"/>
<feGaussianBlur stdDeviation="2"/>
<feComposite in2="hardAlpha" operator="out"/>
<feColorMatrix type="matrix" values="0 0 0 0 0 0 0 0 0 0 0 0 0 0 0 0 0 0 0.25 0"/>
<feBlend mode="normal" in2="effect1_dropShadow_0_1" result="effect2_dropShadow_0_1"/>
<feBlend mode="normal" in="SourceGraphic" in2="effect2_dropShadow_0_1" result="shape"/>
</filter>
<filter id="filter1_dd_0_1" x="87.0295" y="100" width="35" height="35" filterUnits="userSpaceOnUse" color-interpolation-filters="sRGB">
<feFlood flood-opacity="0" result="BackgroundImageFix"/>
<feColorMatrix in="SourceAlpha" type="matrix" values="0 0 0 0 0 0 0 0 0 0 0 0 0 0 0 0 0 0 127 0" result="hardAlpha"/>
<feOffset dy="4"/>
<feGaussianBlur stdDeviation="2"/>
<feComposite in2="hardAlpha" operator="out"/>
<feColorMatrix type="matrix" values="0 0 0 0 0 0 0 0 0 0 0 0 0 0 0 0 0 0 0.25 0"/>
<feBlend mode="normal" in2="BackgroundImageFix" result="effect1_dropShadow_0_1"/>
<feColorMatrix in="SourceAlpha" type="matrix" values="0 0 0 0 0 0 0 0 0 0 0 0 0 0 0 0 0 0 127 0" result="hardAlpha"/>
<feOffset dy="4"/>
<feGaussianBlur stdDeviation="2"/>
<feComposite in2="hardAlpha" operator="out"/>
<feColorMatrix type="matrix" values="0 0 0 0 0 0 0 0 0 0 0 0 0 0 0 0 0 0 0.25 0"/>
<feBlend mode="normal" in2="effect1_dropShadow_0_1" result="effect2_dropShadow_0_1"/>
<feBlend mode="normal" in="SourceGraphic" in2="effect2_dropShadow_0_1" result="shape"/>
</filter>
<linearGradient id="paint0_linear_0_1" x1="-1031.83" y1="878.31" x2="-1031.83" y2="925.93" gradientUnits="userSpaceOnUse">
<stop stop-color="#41668F"/>
<stop offset="0.247" stop-color="#355881"/>
<stop offset="0.75" stop-color="#1F324E"/>
<stop offset="1" stop-color="#131D32"/>
</linearGradient>
<linearGradient id="paint1_linear_0_1" x1="-1031.68" y1="931.624" x2="-1031.68" y2="964.864" gradientUnits="userSpaceOnUse">
<stop/>
<stop offset="0.1899" stop-color="#EEA518"/>
<stop offset="0.19" stop-color="#F77F28"/>
<stop offset="0.371" stop-color="#F77F28"/>
<stop offset="0.619" stop-color="#F77F28"/>
<stop offset="0.949" stop-color="#F77F28"/>
<stop offset="1" stop-color="#F26022"/>
</linearGradient>
<linearGradient id="paint2_linear_0_1" x1="-1031.64" y1="902.759" x2="-1031.64" y2="943.041" gradientUnits="userSpaceOnUse">
<stop stop-color="#F77F28"/>
<stop offset="0.04" stop-color="#5D3283"/>
<stop offset="0.35" stop-color="#54618E"/>
<stop offset="0.625" stop-color="#4E8396"/>
<stop offset="0.851" stop-color="#4A989B"/>
<stop offset="1" stop-color="#49A09D"/>
</linearGradient>
</defs>
</svg>
