<svg width="38" height="38" viewBox="0 0 38 38" fill="none" xmlns="http://www.w3.org/2000/svg">
<path d="M12.75 37.75H33.8438C36 37.75 37.75 36 37.75 33.8438V32.2812C37.75 30.125 36 28.375 33.8438 28.375H12.75V37.75ZM12.75 25.25H33.8438C36 25.25 37.75 23.5 37.75 21.3438V16.6562C37.75 14.5 36 12.75 33.8438 12.75H12.75V25.25ZM9.625 12.75V25.25H4.15625C2 25.25 0.25 23.5 0.25 21.3438V16.6562C0.25 14.5 2 12.75 4.15625 12.75H9.625ZM12.75 9.625H33.8438C36 9.625 37.75 7.875 37.75 5.71875V4.15625C37.75 2 36 0.25 33.8438 0.25H12.75V9.625ZM9.625 0.25V9.625H4.15625C2 9.625 0.25 7.875 0.25 5.71875V4.15625C0.25 2 2 0.25 4.15625 0.25H9.625ZM9.625 28.375V37.75H4.15625C2 37.75 0.25 36 0.25 33.8438V32.2812C0.25 30.125 2 28.375 4.15625 28.375H9.625Z" fill="black"/>
</svg>
