<svg width="82" height="135" viewBox="0 0 82 135" fill="none" xmlns="http://www.w3.org/2000/svg">
<g filter="url(#filter0_dd_11_354)">
<path d="M4.03678 36.0882C4.03678 35.8882 4.04877 35.6772 4.04877 35.4882C4.06077 35.3552 4.06076 35.2352 4.07276 35.1022C4.09676 34.5582 4.14476 34.0142 4.19376 33.4712V33.3502C4.22976 33.1082 4.25378 32.8552 4.27778 32.6132C4.28978 32.5282 4.28976 32.4562 4.30176 32.3712C4.35076 32.0092 4.40178 31.6472 4.45878 31.2842C4.45796 31.2777 4.45862 31.2711 4.4607 31.2648C4.46278 31.2586 4.46621 31.2529 4.47077 31.2482C4.55577 30.6482 4.66477 30.0482 4.78577 29.4602C4.79033 29.4555 4.79377 29.4498 4.79584 29.4436C4.79792 29.4373 4.79858 29.4307 4.79777 29.4242C4.84577 29.1582 4.90577 28.9042 4.96677 28.6392C5.13577 27.9262 5.31676 27.2132 5.52176 26.5132C5.66676 26.0292 5.81178 25.5462 5.98078 25.0632C6.08978 25.3892 6.19877 25.7152 6.31977 26.0292C6.40377 26.2592 6.48876 26.4882 6.57276 26.7062V26.7182C6.58573 26.7656 6.60634 26.8105 6.63376 26.8512C6.65776 26.8992 6.66976 26.9512 6.69376 26.9962C6.81476 27.3222 6.94779 27.6362 7.09379 27.9502C7.14283 28.0823 7.19922 28.2115 7.26276 28.3372V28.3492C7.27809 28.3876 7.29825 28.4239 7.32276 28.4572L7.33478 28.4692C7.33811 28.5173 7.35509 28.5634 7.38376 28.6022C7.5171 28.9042 7.6621 29.2062 7.81876 29.5082C7.84992 29.5832 7.886 29.656 7.92676 29.7262C7.95574 29.7888 7.98917 29.8493 8.02677 29.9072C8.09977 30.0762 8.18377 30.2332 8.26877 30.3902C8.37677 30.5842 8.48543 30.7776 8.59476 30.9702C8.64203 31.0695 8.69445 31.1663 8.75178 31.2602C8.73978 31.2722 8.75178 31.2722 8.75178 31.2722C8.79978 31.3722 8.86078 31.4652 8.92078 31.5622C9.12078 31.9492 9.35578 32.3232 9.59678 32.6982C9.87478 33.1569 10.1648 33.6039 10.4668 34.0392C10.5236 34.1082 10.576 34.1807 10.6238 34.2562C10.9018 34.6562 11.1918 35.0562 11.4818 35.4402C11.7358 35.7782 12.0008 36.1042 12.2668 36.4302C12.3998 36.6002 12.5328 36.7692 12.6778 36.9302C12.7618 37.0382 12.8588 37.1472 12.9558 37.2562C13.1728 37.5222 13.4148 37.7872 13.6558 38.0562C13.6971 38.1072 13.7415 38.1557 13.7888 38.2012C14.1278 38.5762 14.4778 38.9382 14.8398 39.3012L40.9698 65.4432L67.1108 39.3012C67.6308 38.7822 68.1258 38.2502 68.6108 37.7192C68.8888 37.4052 69.1668 37.0792 69.4328 36.7532C69.5328 36.6442 69.6138 36.5352 69.7108 36.4262C70.0368 36.0262 70.3508 35.6172 70.6528 35.2062C70.7378 35.0852 70.8218 34.9772 70.9068 34.8562C71.0638 34.6512 71.2068 34.4332 71.3658 34.2162C71.4868 34.0472 71.5948 33.8772 71.7038 33.7082C71.7641 33.6307 71.8205 33.5503 71.8728 33.4672C72.1868 32.9842 72.5008 32.4882 72.7908 31.9932C72.9358 31.7512 73.0688 31.5222 73.2018 31.2802C73.2226 31.2317 73.2509 31.1868 73.2858 31.1472C73.4188 30.9062 73.5398 30.6522 73.6728 30.4102C73.8418 30.0962 73.9988 29.7822 74.1558 29.4682C74.1872 29.4152 74.2118 29.3584 74.2288 29.2992C74.2735 29.2167 74.3139 29.1319 74.3498 29.0452C74.3787 28.9995 74.4028 28.9509 74.4218 28.9002C74.4698 28.8002 74.5218 28.7192 74.5548 28.6352C74.6638 28.4052 74.7548 28.1882 74.8448 27.9582C74.9414 27.7662 75.0262 27.5685 75.0988 27.3662C75.1348 27.2942 75.1588 27.2332 75.1988 27.1612C75.1988 27.1492 75.2108 27.1372 75.2108 27.1252C75.4888 26.4362 75.7428 25.7592 75.9598 25.0712C76.1288 25.5542 76.2738 26.0372 76.4188 26.5212C76.5188 26.8472 76.6128 27.1732 76.6968 27.4992C76.7808 27.8252 76.8778 28.1752 76.9508 28.5262C77.0468 28.9122 77.1311 29.2985 77.2038 29.6852C77.2888 30.0722 77.3618 30.4592 77.4218 30.8572C77.4818 31.2552 77.5548 31.6432 77.6028 32.0412C77.6508 32.3672 77.6878 32.7062 77.7238 33.0322C77.7358 33.1532 77.7478 33.2612 77.7598 33.3822C77.7958 33.7202 77.8208 34.0712 77.8448 34.4092V34.4212C77.8808 34.7832 77.8928 35.1342 77.9048 35.4962C77.9288 35.9962 77.9408 36.4752 77.9408 36.9702C77.9408 37.6702 77.9168 38.3832 77.8688 39.0842C77.3781 48.1473 73.5477 56.7073 67.1168 63.1122L41.0118 89.2052L40.9758 89.2412L14.8458 63.1122C12.9279 61.2021 11.2302 59.0828 9.78477 56.7942C9.78477 56.7812 9.77277 56.7702 9.77277 56.7572C6.39171 51.457 4.43595 45.3737 4.09476 39.0962C4.02376 38.0812 3.99978 37.0912 4.03678 36.0882Z" fill="url(#paint0_linear_11_354)"/>
<path d="M15.3564 10.3332C21.4028 4.50895 29.2538 0.919666 37.6144 0.157577C45.9751 -0.604512 54.3457 1.50614 61.3454 6.14128C61.3934 6.16528 61.4304 6.18929 61.4544 6.20229C63.2863 7.42241 65.0046 8.80498 66.5884 10.3332L65.5884 11.3332L40.9695 35.9403L16.2174 11.1912V11.1792L16.1334 11.0943L15.3564 10.3332Z" fill="url(#paint1_linear_11_354)"/>
<path d="M5.98145 25.0592C7.20346 21.4245 8.98925 18.0044 11.2734 14.9242C11.4904 14.6342 11.7084 14.3442 11.9494 14.0542C12.1674 13.7762 12.3964 13.4982 12.6264 13.2202C13.0974 12.6772 13.5684 12.1332 14.0754 11.6012C14.3174 11.3362 14.5754 11.0822 14.8364 10.8162C14.9939 10.6432 15.1637 10.4817 15.3445 10.3332H15.3564L16.1294 11.0942L16.2134 11.1792V11.1912L40.9664 35.9432L65.5854 11.3362L66.5854 10.3362C66.7669 10.4879 66.9401 10.6492 67.1044 10.8192C71.1176 14.8162 74.1452 19.6926 75.9474 25.0622C75.7304 25.7502 75.4764 26.4272 75.1984 27.1162C75.1984 27.1282 75.1864 27.1402 75.1864 27.1522C75.1504 27.2242 75.1264 27.2852 75.0864 27.3572C75.0139 27.5596 74.9291 27.7572 74.8324 27.9492C74.6391 28.3959 74.4338 28.8429 74.2164 29.2902C74.0474 29.6642 73.8534 30.0392 73.6604 30.4012C73.3824 30.9332 73.0924 31.4642 72.7784 31.9842C72.4884 32.4792 72.1784 32.9752 71.8604 33.4582C71.8364 33.4822 71.8244 33.5182 71.8004 33.5422C71.5104 33.9892 71.2005 34.4362 70.8705 34.8832C70.7975 34.9922 70.7254 35.0892 70.6404 35.1972C70.3144 35.6322 69.9764 36.0672 69.6404 36.4902L69.6164 36.5142C69.2904 36.9142 68.9521 37.3142 68.6014 37.7142C68.1184 38.2452 67.6234 38.7772 67.1014 39.2962L40.9604 65.4382L14.8304 39.2962C11.7388 36.2089 9.21946 32.5976 7.38943 28.6302C7.35308 28.5795 7.32818 28.5215 7.31644 28.4602C7.29192 28.4269 7.27176 28.3906 7.25644 28.3522V28.3402C7.1929 28.2145 7.13647 28.0853 7.08743 27.9533C6.94243 27.6393 6.80944 27.3252 6.68744 26.9992C6.64034 26.9097 6.5999 26.8167 6.56644 26.7212V26.7092C6.48244 26.4912 6.39745 26.2622 6.31345 26.0322C6.19945 25.7112 6.09045 25.3852 5.98145 25.0592Z" fill="url(#paint2_linear_11_354)"/>
<g style="mix-blend-mode:multiply" opacity="0.06">
<path d="M40.9658 35.9421L66.5918 10.3261C66.7688 10.4781 66.9458 10.6552 67.1098 10.8192C68.3952 12.0969 69.5822 13.4698 70.6608 14.9262L40.9658 35.9421Z" fill="#010101"/>
</g>
<g style="mix-blend-mode:multiply" opacity="0.06">
<path d="M40.9658 65.4312L67.1068 39.2892C67.6268 38.7702 68.1218 38.2382 68.6068 37.7072C68.8848 37.3812 69.1628 37.0672 69.4288 36.7412C69.5288 36.6322 69.6098 36.5232 69.7068 36.4142C70.0328 36.0142 70.3468 35.6052 70.6488 35.1942C70.7338 35.0732 70.8178 34.9652 70.9028 34.8442C71.0598 34.6392 71.2168 34.4212 71.3618 34.2042C71.4828 34.0352 71.5908 33.8652 71.6998 33.6962C71.7602 33.6187 71.8166 33.5383 71.8688 33.4552C72.1828 32.9722 72.4968 32.4762 72.7868 31.9812C72.9318 31.7512 73.0648 31.5102 73.1978 31.2682C73.2186 31.2197 73.247 31.1748 73.2818 31.1352C73.4148 30.8942 73.5478 30.6402 73.6688 30.3982C73.8378 30.0842 73.9948 29.7702 74.1518 29.4562C74.1833 29.4032 74.2078 29.3464 74.2248 29.2872C74.2696 29.2047 74.31 29.1199 74.3458 29.0332C74.3748 28.9875 74.3989 28.9389 74.4178 28.8882C74.5628 28.5742 74.7078 28.2602 74.8408 27.9462C74.9375 27.7542 75.0223 27.5565 75.0948 27.3542C75.4088 26.5932 75.6948 25.8322 75.9518 25.0542C76.1208 25.5372 76.2658 26.0202 76.4108 26.5042C76.5108 26.8302 76.6048 27.1562 76.6888 27.4822C76.7728 27.8082 76.8698 28.1582 76.9428 28.5092C77.0388 28.8952 77.1232 29.2815 77.1958 29.6682C77.2808 30.0552 77.3538 30.4422 77.4138 30.8402C77.4738 31.2382 77.5468 31.6262 77.5948 32.0242C77.6428 32.3502 77.6798 32.6892 77.7158 33.0152C77.7278 33.1362 77.7398 33.2442 77.7518 33.3652C77.7878 33.7032 77.8128 34.0542 77.8368 34.3922V34.4042C77.8728 34.7662 77.8848 35.1172 77.8968 35.4792C77.9208 35.9792 77.9328 36.4582 77.9328 36.9532C77.9328 37.6532 77.9088 38.3662 77.8608 39.0672L77.4608 39.3572L46.2088 61.6862L40.9658 65.4312Z" fill="#010101"/>
</g>
<g style="mix-blend-mode:multiply" opacity="0.06">
<path d="M11.2734 14.9262C11.4904 14.6362 11.7084 14.3462 11.9494 14.0562C12.1674 13.7782 12.3964 13.5002 12.6264 13.2222C13.0974 12.6792 13.5684 12.1352 14.0754 11.6032C14.3174 11.3382 14.5754 11.0722 14.8244 10.8182H14.8364C14.9939 10.6451 15.1637 10.4837 15.3445 10.3352H15.3564L16.2014 11.1932C16.2014 11.1812 16.2134 11.1932 16.2134 11.1932C16.2305 11.2198 16.251 11.244 16.2744 11.2652L40.9664 35.9452L35.9774 32.4182L12.2514 15.6182L11.2734 14.9262Z" fill="#010101"/>
</g>
<g style="mix-blend-mode:multiply" opacity="0.06">
<path d="M4.97299 28.6262C5.13699 27.9152 5.31497 27.2062 5.52197 26.5042C5.66697 26.0202 5.81199 25.5372 5.98099 25.0542C6.08999 25.3802 6.19898 25.7062 6.31998 26.0202C6.40398 26.2502 6.48899 26.4792 6.58499 26.6972C6.60999 26.7972 6.65797 26.8902 6.69397 26.9872C6.81497 27.3132 6.94799 27.6272 7.09399 27.9412C7.14303 28.0732 7.19943 28.2025 7.26297 28.3282C7.27559 28.3715 7.29592 28.4121 7.32297 28.4482C7.33471 28.5095 7.35961 28.5675 7.39597 28.6182C9.22876 32.581 11.7433 36.1912 14.825 39.2842H14.837L40.967 65.4262L35.784 61.7172L4.89499 39.6592L4.08597 39.0792L4.07397 39.0672C4.02497 38.3672 4.00098 37.6542 4.00098 36.9532C4.00098 36.6632 4.02599 36.3732 4.03299 36.0832C4.03299 35.8832 4.04699 35.6832 4.05499 35.4762C4.08299 34.7762 4.12899 34.0862 4.19699 33.3912C4.22999 33.0472 4.26498 32.7042 4.30798 32.3612C4.35398 31.9992 4.39899 31.6372 4.45599 31.2762C4.55599 30.6552 4.66598 30.0372 4.79398 29.4202C4.84898 29.1592 4.91099 28.8952 4.97299 28.6262Z" fill="#010101"/>
</g>
<g style="mix-blend-mode:multiply" opacity="0.14">
<path d="M16.123 11.0991L40.966 35.9421L65.5811 11.3421C63.6981 13.5661 61.727 15.6891 59.794 17.8621C57.835 19.9981 55.864 22.1341 53.868 24.2311C51.884 26.3541 49.849 28.4261 47.84 30.5111L41.724 36.7031L40.966 37.4741L40.208 36.7031L34.041 30.4481C32.007 28.3381 29.96 26.2531 27.951 24.1181C25.942 21.9831 23.945 19.8461 21.961 17.6861C20.028 15.4971 18.031 13.3481 16.123 11.0991Z" fill="#010101"/>
</g>
<g style="mix-blend-mode:multiply" opacity="0.14">
<path d="M7.26465 28.3482C9.10583 32.4232 11.6703 36.1307 14.8336 39.2912L40.9656 65.4352L67.1096 39.2912C70.5857 35.8234 73.3315 31.6941 75.1846 27.1472C73.7432 31.245 71.5583 35.0419 68.7397 38.3472C68.0327 39.1812 67.2617 39.9642 66.5287 40.7472L64.3177 43.0972L59.8316 47.7602C53.8676 53.9602 47.8016 60.0932 41.7236 66.1962L40.9656 66.9542L40.2076 66.1962L31.3496 57.2502C28.4306 54.2422 25.4737 51.2602 22.5797 48.2152L18.2166 43.6752L16.0556 41.3882C15.3476 40.6172 14.6027 39.8592 13.8946 39.0882C11.0602 35.9334 8.81465 32.2958 7.26465 28.3482Z" fill="#010101"/>
</g>
<g style="mix-blend-mode:screen" opacity="0.3">
<path d="M16.123 11.0991C18.372 13.0071 20.5231 14.9991 22.7061 16.9371C24.8667 18.9211 27.0107 20.9178 29.138 22.9271C31.274 24.9361 33.3591 26.9831 35.4691 29.0171L40.9691 34.4381L46.402 29.0681C48.502 27.0591 50.56 25.0241 52.683 23.0531C54.793 21.0441 56.916 19.0851 59.064 17.1141C61.237 15.1931 63.364 13.2221 65.584 11.3391L40.9691 35.9391L16.123 11.0991Z" fill="white"/>
</g>
<g style="mix-blend-mode:screen" opacity="0.3">
<path d="M7.26465 28.3482C9.16323 32.0638 11.6561 35.4443 14.6447 38.3562C17.6767 41.2372 20.7446 44.1182 23.7546 47.0372C26.7876 49.9432 29.7696 52.8872 32.7776 55.8192L40.9656 63.9312C46.8156 58.0932 52.7083 52.3059 58.6436 46.5692L63.3066 42.0832C64.8606 40.6052 66.4776 39.1392 67.9566 37.6352C70.938 34.57 73.3816 31.0244 75.1846 27.1472C73.3315 31.6941 70.5857 35.8234 67.1096 39.2912L40.9656 65.4352L14.8336 39.2912C11.6703 36.1307 9.10583 32.4232 7.26465 28.3482Z" fill="white"/>
</g>
<g style="mix-blend-mode:screen" opacity="0.5">
<path d="M41.002 89.1931C41.316 88.8061 43.9739 85.6171 48.0569 81.1721C50.2189 78.7801 52.7799 76.0501 55.5569 73.1381C56.9569 71.7011 58.371 70.1911 59.857 68.6931C61.343 67.1951 62.857 65.6611 64.351 64.1391C65.1 63.3901 65.909 62.6281 66.61 61.9041C67.383 61.1311 68.036 60.3821 68.688 59.6041C69.9789 58.0709 71.1424 56.4348 72.167 54.7121C74.0014 51.6442 75.4077 48.34 76.347 44.8911C76.782 43.3691 77.0349 41.9311 77.2769 40.6631C77.3499 40.2031 77.4099 39.7691 77.4579 39.3631C77.5546 38.6138 77.6273 37.9371 77.676 37.3331C77.748 36.4271 77.76 35.6661 77.796 35.1711C77.821 34.7361 77.8329 34.4711 77.8329 34.4101C77.8689 34.7721 77.8809 35.1231 77.8929 35.4851C77.9169 35.9851 77.929 36.4641 77.929 36.9591C77.929 37.6591 77.905 38.3721 77.857 39.0731C77.3663 48.1362 73.5359 56.6962 67.1049 63.1011L41.002 89.1931Z" fill="white"/>
</g>
<g style="mix-blend-mode:multiply" opacity="0.2">
<path d="M4.97302 28.6261C5.13702 27.9151 5.315 27.2061 5.522 26.5041C5.667 26.0201 5.81202 25.5371 5.98102 25.0541C7.20304 21.4193 8.98883 17.9992 11.273 14.9191C11.49 14.6291 11.708 14.3391 11.949 14.0491C12.167 13.7711 12.396 13.4931 12.626 13.2151C13.097 12.6721 13.568 12.1281 14.075 11.5961C14.317 11.3311 14.575 11.0651 14.824 10.8111H14.836C14.9934 10.638 15.1632 10.4766 15.344 10.3281H15.356C21.4023 4.50382 29.2534 0.91454 37.614 0.152451C45.9746 -0.609637 54.3453 1.50098 61.345 6.13613C61.188 6.05213 60.934 5.90712 60.62 5.72612C59.968 5.36312 59.002 4.88014 57.757 4.28814C54.3234 2.72098 50.6753 1.67447 46.933 1.18312C41.7002 0.481577 36.3782 0.89047 31.314 2.38314C28.485 3.22648 25.7645 4.39812 23.208 5.87413C20.6767 7.35464 18.3326 9.13406 16.226 11.1741C16.226 11.1741 16.213 11.1621 16.213 11.1741V11.1861C16.213 11.1861 16.201 11.1741 16.201 11.1861C16.117 11.2581 16.044 11.3431 15.96 11.4151C14.6143 12.7117 13.374 14.1135 12.251 15.6071C11.5546 16.532 10.9054 17.4916 10.306 18.4821C8.76214 21.002 7.52916 23.6997 6.634 26.5161C6.61245 26.5749 6.59608 26.6355 6.58502 26.6971H6.573V26.7091C5.77691 29.2893 5.25078 31.9452 5.00302 34.6341C4.85367 36.3048 4.81724 37.9836 4.89401 39.6591C4.93101 40.4921 5.00301 41.3141 5.08801 42.0991C5.48022 45.8545 6.43701 49.5293 7.92603 52.9991C8.50603 54.2441 8.94102 55.2341 9.30402 55.8741C9.52102 56.2851 9.678 56.5871 9.763 56.7441C6.38194 51.4439 4.42621 45.3606 4.08502 39.0831L4.073 39.0711C4.024 38.3711 4 37.6581 4 36.9571C4 36.6671 4.02501 36.3771 4.03201 36.0871C4.03201 35.8871 4.04602 35.6871 4.05402 35.4801C4.08202 34.7801 4.12801 34.0901 4.19601 33.3951C4.22901 33.0511 4.26401 32.7081 4.30701 32.3651C4.35301 32.0031 4.39802 31.6411 4.45502 31.2801C4.55502 30.6591 4.665 30.0411 4.793 29.4241C4.849 29.1591 4.91102 28.8951 4.97302 28.6261Z" fill="#010101"/>
</g>
</g>
<g filter="url(#filter1_dd_11_354)">
<circle cx="42.5" cy="113.5" r="13.5" fill="black"/>
</g>
<defs>
<filter id="filter0_dd_11_354" x="0" y="0" width="81.9409" height="97.2412" filterUnits="userSpaceOnUse" color-interpolation-filters="sRGB">
<feFlood flood-opacity="0" result="BackgroundImageFix"/>
<feColorMatrix in="SourceAlpha" type="matrix" values="0 0 0 0 0 0 0 0 0 0 0 0 0 0 0 0 0 0 127 0" result="hardAlpha"/>
<feOffset dy="4"/>
<feGaussianBlur stdDeviation="2"/>
<feComposite in2="hardAlpha" operator="out"/>
<feColorMatrix type="matrix" values="0 0 0 0 0 0 0 0 0 0 0 0 0 0 0 0 0 0 0.25 0"/>
<feBlend mode="normal" in2="BackgroundImageFix" result="effect1_dropShadow_11_354"/>
<feColorMatrix in="SourceAlpha" type="matrix" values="0 0 0 0 0 0 0 0 0 0 0 0 0 0 0 0 0 0 127 0" result="hardAlpha"/>
<feOffset dy="4"/>
<feGaussianBlur stdDeviation="2"/>
<feComposite in2="hardAlpha" operator="out"/>
<feColorMatrix type="matrix" values="0 0 0 0 0 0 0 0 0 0 0 0 0 0 0 0 0 0 0.25 0"/>
<feBlend mode="normal" in2="effect1_dropShadow_11_354" result="effect2_dropShadow_11_354"/>
<feBlend mode="normal" in="SourceGraphic" in2="effect2_dropShadow_11_354" result="shape"/>
</filter>
<filter id="filter1_dd_11_354" x="25" y="100" width="35" height="35" filterUnits="userSpaceOnUse" color-interpolation-filters="sRGB">
<feFlood flood-opacity="0" result="BackgroundImageFix"/>
<feColorMatrix in="SourceAlpha" type="matrix" values="0 0 0 0 0 0 0 0 0 0 0 0 0 0 0 0 0 0 127 0" result="hardAlpha"/>
<feOffset dy="4"/>
<feGaussianBlur stdDeviation="2"/>
<feComposite in2="hardAlpha" operator="out"/>
<feColorMatrix type="matrix" values="0 0 0 0 0 0 0 0 0 0 0 0 0 0 0 0 0 0 0.25 0"/>
<feBlend mode="normal" in2="BackgroundImageFix" result="effect1_dropShadow_11_354"/>
<feColorMatrix in="SourceAlpha" type="matrix" values="0 0 0 0 0 0 0 0 0 0 0 0 0 0 0 0 0 0 127 0" result="hardAlpha"/>
<feOffset dy="4"/>
<feGaussianBlur stdDeviation="2"/>
<feComposite in2="hardAlpha" operator="out"/>
<feColorMatrix type="matrix" values="0 0 0 0 0 0 0 0 0 0 0 0 0 0 0 0 0 0 0.25 0"/>
<feBlend mode="normal" in2="effect1_dropShadow_11_354" result="effect2_dropShadow_11_354"/>
<feBlend mode="normal" in="SourceGraphic" in2="effect2_dropShadow_11_354" result="shape"/>
</filter>
<linearGradient id="paint0_linear_11_354" x1="-1093.86" y1="878.31" x2="-1093.86" y2="925.93" gradientUnits="userSpaceOnUse">
<stop stop-color="#41668F"/>
<stop offset="0.247" stop-color="#355881"/>
<stop offset="0.75" stop-color="#1F324E"/>
<stop offset="1" stop-color="#131D32"/>
</linearGradient>
<linearGradient id="paint1_linear_11_354" x1="-1093.71" y1="931.624" x2="-1093.71" y2="964.864" gradientUnits="userSpaceOnUse">
<stop/>
<stop offset="0.1899" stop-color="#EEA518"/>
<stop offset="0.19" stop-color="#F77F28"/>
<stop offset="0.371" stop-color="#F77F28"/>
<stop offset="0.619" stop-color="#F77F28"/>
<stop offset="0.949" stop-color="#F77F28"/>
<stop offset="1" stop-color="#F26022"/>
</linearGradient>
<linearGradient id="paint2_linear_11_354" x1="-1093.67" y1="902.759" x2="-1093.67" y2="943.041" gradientUnits="userSpaceOnUse">
<stop stop-color="#F77F28"/>
<stop offset="0.04" stop-color="#5D3283"/>
<stop offset="0.35" stop-color="#54618E"/>
<stop offset="0.625" stop-color="#4E8396"/>
<stop offset="0.851" stop-color="#4A989B"/>
<stop offset="1" stop-color="#49A09D"/>
</linearGradient>
</defs>
</svg>
